G04 EAGLE Gerber RS-274X export*
G75*
%MOMM*%
%FSLAX34Y34*%
%LPD*%
%INTop Copper*%
%IPPOS*%
%AMOC8*
5,1,8,0,0,1.08239X$1,22.5*%
G01*
%ADD10P,3.409096X8X292.500000*%
%ADD11R,1.500000X1.300000*%
%ADD12R,1.300000X1.500000*%
%ADD13P,2.749271X8X202.500000*%
%ADD14R,1.400000X1.000000*%
%ADD15R,1.550000X1.300000*%
%ADD16R,2.200000X0.600000*%
%ADD17C,0.304800*%
%ADD18C,0.914400*%

G36*
X958643Y10176D02*
X958643Y10176D01*
X958740Y10186D01*
X958764Y10196D01*
X958790Y10200D01*
X958876Y10246D01*
X958965Y10286D01*
X958984Y10303D01*
X959007Y10316D01*
X959074Y10386D01*
X959146Y10452D01*
X959158Y10475D01*
X959176Y10494D01*
X959217Y10582D01*
X959264Y10668D01*
X959269Y10693D01*
X959280Y10717D01*
X959291Y10814D01*
X959308Y10910D01*
X959304Y10936D01*
X959307Y10961D01*
X959287Y11057D01*
X959272Y11153D01*
X959260Y11176D01*
X959255Y11202D01*
X959205Y11285D01*
X959161Y11372D01*
X959142Y11391D01*
X959129Y11413D01*
X959055Y11476D01*
X958985Y11544D01*
X958957Y11560D01*
X958942Y11573D01*
X958911Y11585D01*
X958838Y11625D01*
X956612Y12547D01*
X952347Y16812D01*
X950039Y22384D01*
X950039Y28416D01*
X952347Y33988D01*
X956612Y38253D01*
X962184Y40561D01*
X968216Y40561D01*
X973788Y38253D01*
X975840Y36201D01*
X975898Y36159D01*
X975950Y36110D01*
X975997Y36088D01*
X976039Y36057D01*
X976108Y36036D01*
X976173Y36006D01*
X976225Y36000D01*
X976275Y35985D01*
X976346Y35987D01*
X976417Y35979D01*
X976468Y35990D01*
X976520Y35991D01*
X976588Y36016D01*
X976658Y36031D01*
X976703Y36058D01*
X976751Y36076D01*
X976807Y36121D01*
X976869Y36157D01*
X976903Y36197D01*
X976943Y36229D01*
X976982Y36290D01*
X977029Y36344D01*
X977048Y36393D01*
X977076Y36436D01*
X977094Y36506D01*
X977121Y36572D01*
X977129Y36644D01*
X977137Y36675D01*
X977135Y36698D01*
X977139Y36739D01*
X977139Y344261D01*
X977128Y344332D01*
X977126Y344403D01*
X977108Y344452D01*
X977100Y344504D01*
X977066Y344567D01*
X977041Y344634D01*
X977009Y344675D01*
X976984Y344721D01*
X976932Y344770D01*
X976888Y344826D01*
X976844Y344855D01*
X976806Y344890D01*
X976741Y344921D01*
X976681Y344959D01*
X976630Y344972D01*
X976583Y344994D01*
X976512Y345002D01*
X976442Y345019D01*
X976390Y345015D01*
X976339Y345021D01*
X976268Y345006D01*
X976197Y345000D01*
X976149Y344980D01*
X976098Y344969D01*
X976037Y344932D01*
X975971Y344904D01*
X975915Y344859D01*
X975887Y344843D01*
X975872Y344825D01*
X975840Y344799D01*
X973788Y342747D01*
X968216Y340439D01*
X962184Y340439D01*
X956612Y342747D01*
X952347Y347012D01*
X950039Y352584D01*
X950039Y358616D01*
X952347Y364188D01*
X956612Y368453D01*
X958597Y369275D01*
X958680Y369326D01*
X958766Y369372D01*
X958784Y369390D01*
X958806Y369404D01*
X958868Y369480D01*
X958935Y369550D01*
X958946Y369574D01*
X958963Y369594D01*
X958998Y369685D01*
X959039Y369773D01*
X959042Y369799D01*
X959051Y369823D01*
X959055Y369921D01*
X959066Y370017D01*
X959060Y370043D01*
X959061Y370069D01*
X959034Y370163D01*
X959013Y370258D01*
X959000Y370280D01*
X958993Y370305D01*
X958937Y370385D01*
X958887Y370469D01*
X958867Y370486D01*
X958853Y370507D01*
X958774Y370566D01*
X958700Y370629D01*
X958676Y370639D01*
X958655Y370654D01*
X958563Y370684D01*
X958472Y370721D01*
X958440Y370724D01*
X958421Y370730D01*
X958388Y370730D01*
X958306Y370739D01*
X32294Y370739D01*
X32198Y370724D01*
X32101Y370714D01*
X32078Y370704D01*
X32052Y370700D01*
X31966Y370654D01*
X31877Y370614D01*
X31857Y370597D01*
X31834Y370584D01*
X31767Y370514D01*
X31696Y370448D01*
X31683Y370425D01*
X31665Y370406D01*
X31624Y370318D01*
X31577Y370232D01*
X31572Y370207D01*
X31561Y370183D01*
X31551Y370086D01*
X31533Y369990D01*
X31537Y369964D01*
X31534Y369939D01*
X31555Y369843D01*
X31569Y369747D01*
X31581Y369724D01*
X31587Y369698D01*
X31636Y369615D01*
X31681Y369528D01*
X31699Y369509D01*
X31713Y369487D01*
X31787Y369424D01*
X31856Y369356D01*
X31885Y369340D01*
X31900Y369327D01*
X31930Y369315D01*
X32003Y369275D01*
X33988Y368453D01*
X38253Y364188D01*
X40561Y358616D01*
X40561Y352584D01*
X38253Y347012D01*
X33988Y342747D01*
X28416Y340439D01*
X22384Y340439D01*
X16812Y342747D01*
X12547Y347012D01*
X11625Y349238D01*
X11574Y349321D01*
X11528Y349407D01*
X11510Y349425D01*
X11496Y349447D01*
X11420Y349510D01*
X11350Y349576D01*
X11326Y349587D01*
X11306Y349604D01*
X11215Y349639D01*
X11127Y349680D01*
X11101Y349683D01*
X11077Y349692D01*
X10979Y349696D01*
X10883Y349707D01*
X10857Y349702D01*
X10831Y349703D01*
X10737Y349676D01*
X10642Y349655D01*
X10620Y349641D01*
X10595Y349634D01*
X10515Y349579D01*
X10431Y349529D01*
X10414Y349509D01*
X10393Y349494D01*
X10334Y349416D01*
X10271Y349342D01*
X10261Y349318D01*
X10246Y349297D01*
X10216Y349204D01*
X10179Y349114D01*
X10176Y349081D01*
X10170Y349063D01*
X10170Y349030D01*
X10161Y348947D01*
X10161Y32053D01*
X10176Y31957D01*
X10186Y31860D01*
X10196Y31836D01*
X10200Y31810D01*
X10246Y31724D01*
X10286Y31635D01*
X10303Y31616D01*
X10316Y31593D01*
X10386Y31526D01*
X10452Y31454D01*
X10475Y31442D01*
X10494Y31424D01*
X10582Y31383D01*
X10668Y31336D01*
X10693Y31331D01*
X10717Y31320D01*
X10814Y31309D01*
X10910Y31292D01*
X10936Y31296D01*
X10961Y31293D01*
X11057Y31313D01*
X11153Y31328D01*
X11176Y31340D01*
X11202Y31345D01*
X11285Y31395D01*
X11372Y31439D01*
X11391Y31458D01*
X11413Y31471D01*
X11476Y31545D01*
X11544Y31615D01*
X11560Y31643D01*
X11573Y31658D01*
X11585Y31689D01*
X11625Y31762D01*
X12547Y33988D01*
X16812Y38253D01*
X22384Y40561D01*
X28416Y40561D01*
X33988Y38253D01*
X38253Y33988D01*
X40561Y28416D01*
X40561Y22384D01*
X38253Y16812D01*
X33988Y12547D01*
X31762Y11625D01*
X31679Y11574D01*
X31593Y11528D01*
X31575Y11510D01*
X31553Y11496D01*
X31490Y11420D01*
X31424Y11350D01*
X31413Y11326D01*
X31396Y11306D01*
X31361Y11215D01*
X31320Y11127D01*
X31317Y11101D01*
X31308Y11077D01*
X31304Y10979D01*
X31293Y10883D01*
X31298Y10857D01*
X31297Y10831D01*
X31324Y10737D01*
X31345Y10642D01*
X31359Y10620D01*
X31366Y10595D01*
X31421Y10515D01*
X31471Y10431D01*
X31491Y10414D01*
X31506Y10393D01*
X31584Y10334D01*
X31658Y10271D01*
X31682Y10261D01*
X31703Y10246D01*
X31796Y10216D01*
X31886Y10179D01*
X31919Y10176D01*
X31937Y10170D01*
X31970Y10170D01*
X32053Y10161D01*
X958547Y10161D01*
X958643Y10176D01*
G37*
%LPC*%
G36*
X880966Y14985D02*
X880966Y14985D01*
X878585Y17366D01*
X878585Y27298D01*
X878582Y27318D01*
X878584Y27337D01*
X878562Y27439D01*
X878546Y27541D01*
X878536Y27558D01*
X878532Y27578D01*
X878479Y27667D01*
X878430Y27758D01*
X878416Y27772D01*
X878406Y27789D01*
X878327Y27856D01*
X878252Y27928D01*
X878234Y27936D01*
X878219Y27949D01*
X878123Y27988D01*
X878029Y28031D01*
X878009Y28033D01*
X877991Y28041D01*
X877824Y28059D01*
X871948Y28059D01*
X870459Y29548D01*
X870459Y46652D01*
X871948Y48141D01*
X887052Y48141D01*
X888462Y46731D01*
X888478Y46720D01*
X888490Y46704D01*
X888578Y46648D01*
X888661Y46588D01*
X888680Y46582D01*
X888697Y46571D01*
X888798Y46546D01*
X888897Y46516D01*
X888916Y46516D01*
X888936Y46511D01*
X889039Y46519D01*
X889142Y46522D01*
X889161Y46529D01*
X889181Y46530D01*
X889276Y46571D01*
X889373Y46606D01*
X889389Y46619D01*
X889407Y46627D01*
X889538Y46731D01*
X890948Y48141D01*
X896874Y48141D01*
X896894Y48144D01*
X896913Y48142D01*
X897015Y48164D01*
X897117Y48180D01*
X897134Y48190D01*
X897154Y48194D01*
X897243Y48247D01*
X897334Y48296D01*
X897348Y48310D01*
X897365Y48320D01*
X897432Y48399D01*
X897504Y48474D01*
X897512Y48492D01*
X897525Y48507D01*
X897564Y48603D01*
X897607Y48697D01*
X897609Y48717D01*
X897617Y48735D01*
X897635Y48902D01*
X897635Y52324D01*
X897632Y52344D01*
X897634Y52363D01*
X897612Y52465D01*
X897596Y52567D01*
X897586Y52584D01*
X897582Y52604D01*
X897529Y52693D01*
X897480Y52784D01*
X897466Y52798D01*
X897456Y52815D01*
X897377Y52882D01*
X897302Y52954D01*
X897284Y52962D01*
X897269Y52975D01*
X897173Y53014D01*
X897079Y53057D01*
X897059Y53059D01*
X897041Y53067D01*
X896874Y53085D01*
X821149Y53085D01*
X821059Y53071D01*
X820968Y53063D01*
X820938Y53051D01*
X820906Y53046D01*
X820826Y53003D01*
X820742Y52967D01*
X820710Y52941D01*
X820689Y52930D01*
X820667Y52907D01*
X820611Y52862D01*
X806164Y38415D01*
X806111Y38341D01*
X806051Y38272D01*
X806039Y38242D01*
X806020Y38216D01*
X805993Y38129D01*
X805959Y38044D01*
X805955Y38003D01*
X805948Y37980D01*
X805949Y37948D01*
X805941Y37877D01*
X805941Y29548D01*
X804452Y28059D01*
X789348Y28059D01*
X787938Y29469D01*
X787922Y29480D01*
X787910Y29496D01*
X787822Y29552D01*
X787739Y29612D01*
X787720Y29618D01*
X787703Y29629D01*
X787602Y29654D01*
X787503Y29684D01*
X787484Y29684D01*
X787464Y29689D01*
X787361Y29681D01*
X787258Y29678D01*
X787239Y29671D01*
X787219Y29670D01*
X787124Y29629D01*
X787027Y29594D01*
X787011Y29581D01*
X786993Y29573D01*
X786862Y29469D01*
X785452Y28059D01*
X770348Y28059D01*
X768859Y29548D01*
X768859Y37877D01*
X768845Y37967D01*
X768837Y38058D01*
X768825Y38088D01*
X768820Y38120D01*
X768777Y38200D01*
X768741Y38284D01*
X768715Y38316D01*
X768704Y38337D01*
X768681Y38359D01*
X768636Y38415D01*
X730788Y76263D01*
X730772Y76275D01*
X730760Y76291D01*
X730672Y76347D01*
X730589Y76407D01*
X730570Y76413D01*
X730553Y76424D01*
X730452Y76449D01*
X730353Y76479D01*
X730334Y76479D01*
X730314Y76484D01*
X730211Y76476D01*
X730108Y76473D01*
X730089Y76466D01*
X730069Y76464D01*
X729974Y76424D01*
X729877Y76388D01*
X729861Y76376D01*
X729843Y76368D01*
X729712Y76263D01*
X691864Y38415D01*
X691811Y38341D01*
X691751Y38272D01*
X691739Y38242D01*
X691720Y38216D01*
X691693Y38129D01*
X691659Y38044D01*
X691655Y38003D01*
X691648Y37980D01*
X691649Y37948D01*
X691641Y37877D01*
X691641Y29548D01*
X690152Y28059D01*
X675048Y28059D01*
X673638Y29469D01*
X673622Y29480D01*
X673610Y29496D01*
X673522Y29552D01*
X673439Y29612D01*
X673420Y29618D01*
X673403Y29629D01*
X673302Y29654D01*
X673203Y29684D01*
X673184Y29684D01*
X673164Y29689D01*
X673061Y29681D01*
X672958Y29678D01*
X672939Y29671D01*
X672919Y29670D01*
X672824Y29629D01*
X672727Y29594D01*
X672711Y29581D01*
X672693Y29573D01*
X672562Y29469D01*
X671152Y28059D01*
X656048Y28059D01*
X654559Y29548D01*
X654559Y37877D01*
X654545Y37967D01*
X654537Y38058D01*
X654525Y38088D01*
X654520Y38120D01*
X654477Y38200D01*
X654441Y38284D01*
X654415Y38316D01*
X654404Y38337D01*
X654381Y38359D01*
X654336Y38415D01*
X616488Y76263D01*
X616472Y76275D01*
X616460Y76291D01*
X616372Y76347D01*
X616289Y76407D01*
X616270Y76413D01*
X616253Y76424D01*
X616152Y76449D01*
X616053Y76479D01*
X616034Y76479D01*
X616014Y76484D01*
X615911Y76476D01*
X615808Y76473D01*
X615789Y76466D01*
X615769Y76464D01*
X615674Y76424D01*
X615577Y76388D01*
X615561Y76376D01*
X615543Y76368D01*
X615412Y76263D01*
X577564Y38415D01*
X577511Y38341D01*
X577451Y38272D01*
X577439Y38242D01*
X577420Y38216D01*
X577393Y38129D01*
X577359Y38044D01*
X577355Y38003D01*
X577348Y37980D01*
X577349Y37948D01*
X577341Y37877D01*
X577341Y29548D01*
X575852Y28059D01*
X560748Y28059D01*
X559338Y29469D01*
X559322Y29480D01*
X559310Y29496D01*
X559222Y29552D01*
X559139Y29612D01*
X559120Y29618D01*
X559103Y29629D01*
X559002Y29654D01*
X558903Y29684D01*
X558884Y29684D01*
X558864Y29689D01*
X558761Y29681D01*
X558658Y29678D01*
X558639Y29671D01*
X558619Y29670D01*
X558524Y29629D01*
X558427Y29594D01*
X558411Y29581D01*
X558393Y29573D01*
X558262Y29469D01*
X556852Y28059D01*
X541748Y28059D01*
X540259Y29548D01*
X540259Y37877D01*
X540245Y37967D01*
X540237Y38058D01*
X540225Y38088D01*
X540220Y38120D01*
X540177Y38200D01*
X540141Y38284D01*
X540115Y38316D01*
X540104Y38337D01*
X540081Y38359D01*
X540036Y38415D01*
X502188Y76263D01*
X502172Y76275D01*
X502160Y76291D01*
X502072Y76347D01*
X501989Y76407D01*
X501970Y76413D01*
X501953Y76424D01*
X501852Y76449D01*
X501753Y76479D01*
X501734Y76479D01*
X501714Y76484D01*
X501611Y76476D01*
X501508Y76473D01*
X501489Y76466D01*
X501469Y76464D01*
X501374Y76424D01*
X501277Y76388D01*
X501261Y76376D01*
X501243Y76368D01*
X501112Y76263D01*
X463264Y38415D01*
X463211Y38341D01*
X463151Y38272D01*
X463139Y38242D01*
X463120Y38216D01*
X463093Y38129D01*
X463059Y38044D01*
X463055Y38003D01*
X463048Y37980D01*
X463049Y37948D01*
X463041Y37877D01*
X463041Y29548D01*
X461552Y28059D01*
X446448Y28059D01*
X445038Y29469D01*
X445022Y29480D01*
X445010Y29496D01*
X444922Y29552D01*
X444839Y29612D01*
X444820Y29618D01*
X444803Y29629D01*
X444702Y29654D01*
X444603Y29684D01*
X444584Y29684D01*
X444564Y29689D01*
X444461Y29681D01*
X444358Y29678D01*
X444339Y29671D01*
X444319Y29670D01*
X444224Y29629D01*
X444127Y29594D01*
X444111Y29581D01*
X444093Y29573D01*
X443962Y29469D01*
X442552Y28059D01*
X427448Y28059D01*
X425959Y29548D01*
X425959Y37877D01*
X425945Y37967D01*
X425937Y38058D01*
X425925Y38088D01*
X425920Y38120D01*
X425877Y38200D01*
X425841Y38284D01*
X425815Y38316D01*
X425804Y38337D01*
X425781Y38359D01*
X425736Y38415D01*
X387888Y76263D01*
X387872Y76275D01*
X387860Y76291D01*
X387772Y76347D01*
X387689Y76407D01*
X387670Y76413D01*
X387653Y76424D01*
X387552Y76449D01*
X387453Y76479D01*
X387434Y76479D01*
X387414Y76484D01*
X387311Y76476D01*
X387208Y76473D01*
X387189Y76466D01*
X387169Y76464D01*
X387074Y76424D01*
X386977Y76388D01*
X386961Y76376D01*
X386943Y76368D01*
X386812Y76263D01*
X348964Y38415D01*
X348911Y38341D01*
X348851Y38272D01*
X348839Y38242D01*
X348820Y38216D01*
X348793Y38129D01*
X348759Y38044D01*
X348755Y38003D01*
X348748Y37980D01*
X348749Y37948D01*
X348741Y37877D01*
X348741Y29548D01*
X347252Y28059D01*
X332148Y28059D01*
X330738Y29469D01*
X330722Y29480D01*
X330710Y29496D01*
X330622Y29552D01*
X330539Y29612D01*
X330520Y29618D01*
X330503Y29629D01*
X330402Y29654D01*
X330303Y29684D01*
X330284Y29684D01*
X330264Y29689D01*
X330161Y29681D01*
X330058Y29678D01*
X330039Y29671D01*
X330019Y29670D01*
X329924Y29629D01*
X329827Y29594D01*
X329811Y29581D01*
X329793Y29573D01*
X329662Y29469D01*
X328252Y28059D01*
X313148Y28059D01*
X311659Y29548D01*
X311659Y37877D01*
X311645Y37967D01*
X311637Y38058D01*
X311625Y38088D01*
X311620Y38120D01*
X311577Y38200D01*
X311541Y38284D01*
X311515Y38316D01*
X311504Y38337D01*
X311481Y38359D01*
X311436Y38415D01*
X273588Y76263D01*
X273572Y76275D01*
X273560Y76291D01*
X273472Y76347D01*
X273389Y76407D01*
X273370Y76413D01*
X273353Y76424D01*
X273252Y76449D01*
X273153Y76479D01*
X273134Y76479D01*
X273114Y76484D01*
X273011Y76476D01*
X272908Y76473D01*
X272889Y76466D01*
X272869Y76464D01*
X272774Y76424D01*
X272677Y76388D01*
X272661Y76376D01*
X272643Y76368D01*
X272512Y76263D01*
X234664Y38415D01*
X234611Y38341D01*
X234551Y38272D01*
X234539Y38242D01*
X234520Y38216D01*
X234493Y38129D01*
X234459Y38044D01*
X234455Y38003D01*
X234448Y37980D01*
X234449Y37948D01*
X234441Y37877D01*
X234441Y29548D01*
X232952Y28059D01*
X217848Y28059D01*
X216438Y29469D01*
X216422Y29480D01*
X216410Y29496D01*
X216322Y29552D01*
X216239Y29612D01*
X216220Y29618D01*
X216203Y29629D01*
X216102Y29654D01*
X216003Y29684D01*
X215984Y29684D01*
X215964Y29689D01*
X215861Y29681D01*
X215758Y29678D01*
X215739Y29671D01*
X215719Y29670D01*
X215624Y29629D01*
X215527Y29594D01*
X215511Y29581D01*
X215493Y29573D01*
X215362Y29469D01*
X213952Y28059D01*
X198848Y28059D01*
X197359Y29548D01*
X197359Y37877D01*
X197345Y37967D01*
X197337Y38058D01*
X197325Y38088D01*
X197320Y38120D01*
X197277Y38200D01*
X197241Y38284D01*
X197215Y38316D01*
X197204Y38337D01*
X197181Y38359D01*
X197136Y38415D01*
X159288Y76263D01*
X159272Y76275D01*
X159260Y76291D01*
X159172Y76347D01*
X159089Y76407D01*
X159070Y76413D01*
X159053Y76424D01*
X158952Y76449D01*
X158853Y76479D01*
X158834Y76479D01*
X158814Y76484D01*
X158711Y76476D01*
X158608Y76473D01*
X158589Y76466D01*
X158569Y76464D01*
X158474Y76424D01*
X158377Y76388D01*
X158361Y76376D01*
X158343Y76368D01*
X158212Y76263D01*
X120364Y38415D01*
X120311Y38341D01*
X120251Y38272D01*
X120239Y38242D01*
X120220Y38216D01*
X120193Y38129D01*
X120159Y38044D01*
X120155Y38003D01*
X120148Y37981D01*
X120149Y37948D01*
X120141Y37877D01*
X120141Y29548D01*
X118652Y28059D01*
X103548Y28059D01*
X102138Y29469D01*
X102122Y29480D01*
X102110Y29496D01*
X102022Y29552D01*
X101939Y29612D01*
X101920Y29618D01*
X101903Y29629D01*
X101802Y29654D01*
X101703Y29684D01*
X101684Y29684D01*
X101664Y29689D01*
X101561Y29681D01*
X101458Y29678D01*
X101439Y29671D01*
X101419Y29670D01*
X101324Y29629D01*
X101227Y29594D01*
X101211Y29581D01*
X101193Y29573D01*
X101062Y29469D01*
X99652Y28059D01*
X84548Y28059D01*
X83059Y29548D01*
X83059Y37877D01*
X83045Y37967D01*
X83037Y38058D01*
X83025Y38088D01*
X83020Y38120D01*
X82977Y38200D01*
X82941Y38284D01*
X82915Y38316D01*
X82904Y38337D01*
X82881Y38359D01*
X82836Y38415D01*
X46735Y74516D01*
X46735Y81998D01*
X46732Y82018D01*
X46734Y82037D01*
X46712Y82139D01*
X46696Y82241D01*
X46686Y82258D01*
X46682Y82278D01*
X46629Y82367D01*
X46580Y82458D01*
X46566Y82472D01*
X46556Y82489D01*
X46477Y82556D01*
X46402Y82628D01*
X46384Y82636D01*
X46369Y82649D01*
X46273Y82688D01*
X46179Y82731D01*
X46159Y82733D01*
X46141Y82741D01*
X45974Y82759D01*
X40348Y82759D01*
X38859Y84248D01*
X38859Y99352D01*
X40348Y100841D01*
X57952Y100841D01*
X59441Y99352D01*
X59441Y84248D01*
X57952Y82759D01*
X55626Y82759D01*
X55606Y82756D01*
X55587Y82758D01*
X55485Y82736D01*
X55383Y82720D01*
X55366Y82710D01*
X55346Y82706D01*
X55257Y82653D01*
X55166Y82604D01*
X55152Y82590D01*
X55135Y82580D01*
X55068Y82501D01*
X54996Y82426D01*
X54988Y82408D01*
X54975Y82393D01*
X54936Y82297D01*
X54893Y82203D01*
X54891Y82183D01*
X54883Y82165D01*
X54865Y81998D01*
X54865Y78199D01*
X54879Y78109D01*
X54887Y78018D01*
X54899Y77988D01*
X54904Y77956D01*
X54947Y77876D01*
X54983Y77792D01*
X55009Y77760D01*
X55020Y77739D01*
X55043Y77717D01*
X55088Y77661D01*
X84385Y48364D01*
X84459Y48311D01*
X84528Y48251D01*
X84558Y48239D01*
X84584Y48220D01*
X84671Y48193D01*
X84756Y48159D01*
X84797Y48155D01*
X84820Y48148D01*
X84852Y48149D01*
X84923Y48141D01*
X99652Y48141D01*
X101062Y46731D01*
X101078Y46720D01*
X101090Y46704D01*
X101178Y46648D01*
X101261Y46588D01*
X101280Y46582D01*
X101297Y46571D01*
X101398Y46546D01*
X101497Y46516D01*
X101516Y46516D01*
X101536Y46511D01*
X101639Y46519D01*
X101742Y46522D01*
X101761Y46529D01*
X101781Y46530D01*
X101876Y46571D01*
X101973Y46606D01*
X101989Y46619D01*
X102007Y46627D01*
X102138Y46731D01*
X103548Y48141D01*
X118277Y48141D01*
X118367Y48155D01*
X118458Y48163D01*
X118488Y48175D01*
X118520Y48180D01*
X118600Y48223D01*
X118684Y48259D01*
X118716Y48285D01*
X118737Y48296D01*
X118759Y48319D01*
X118815Y48364D01*
X153391Y82939D01*
X153403Y82956D01*
X153418Y82968D01*
X153474Y83055D01*
X153534Y83139D01*
X153540Y83158D01*
X153551Y83175D01*
X153576Y83275D01*
X153607Y83374D01*
X153606Y83394D01*
X153611Y83413D01*
X153603Y83516D01*
X153600Y83620D01*
X153594Y83639D01*
X153592Y83659D01*
X153552Y83754D01*
X153516Y83851D01*
X153504Y83867D01*
X153496Y83885D01*
X153391Y84016D01*
X153159Y84248D01*
X153159Y99352D01*
X154648Y100841D01*
X172252Y100841D01*
X173741Y99352D01*
X173741Y84248D01*
X172252Y82759D01*
X166127Y82759D01*
X166056Y82748D01*
X165984Y82746D01*
X165936Y82728D01*
X165884Y82720D01*
X165821Y82686D01*
X165753Y82661D01*
X165713Y82629D01*
X165667Y82604D01*
X165617Y82552D01*
X165561Y82508D01*
X165533Y82464D01*
X165497Y82426D01*
X165467Y82361D01*
X165428Y82301D01*
X165416Y82250D01*
X165394Y82203D01*
X165386Y82132D01*
X165368Y82062D01*
X165372Y82010D01*
X165367Y81959D01*
X165382Y81888D01*
X165388Y81817D01*
X165408Y81769D01*
X165419Y81718D01*
X165456Y81657D01*
X165484Y81591D01*
X165529Y81535D01*
X165545Y81507D01*
X165563Y81492D01*
X165589Y81460D01*
X198685Y48364D01*
X198759Y48311D01*
X198828Y48251D01*
X198858Y48239D01*
X198884Y48220D01*
X198971Y48193D01*
X199056Y48159D01*
X199097Y48155D01*
X199120Y48148D01*
X199152Y48149D01*
X199223Y48141D01*
X213952Y48141D01*
X215362Y46731D01*
X215378Y46720D01*
X215390Y46704D01*
X215478Y46648D01*
X215561Y46588D01*
X215580Y46582D01*
X215597Y46571D01*
X215698Y46546D01*
X215797Y46516D01*
X215816Y46516D01*
X215836Y46511D01*
X215939Y46519D01*
X216042Y46522D01*
X216061Y46529D01*
X216081Y46530D01*
X216176Y46571D01*
X216273Y46606D01*
X216289Y46619D01*
X216307Y46627D01*
X216438Y46731D01*
X217848Y48141D01*
X232577Y48141D01*
X232667Y48155D01*
X232758Y48163D01*
X232788Y48175D01*
X232820Y48180D01*
X232900Y48223D01*
X232984Y48259D01*
X233016Y48285D01*
X233037Y48296D01*
X233059Y48319D01*
X233115Y48364D01*
X267691Y82939D01*
X267703Y82955D01*
X267718Y82968D01*
X267774Y83055D01*
X267834Y83139D01*
X267840Y83158D01*
X267851Y83175D01*
X267876Y83275D01*
X267907Y83374D01*
X267906Y83394D01*
X267911Y83413D01*
X267903Y83516D01*
X267900Y83620D01*
X267894Y83639D01*
X267892Y83659D01*
X267852Y83753D01*
X267816Y83851D01*
X267804Y83867D01*
X267796Y83885D01*
X267691Y84016D01*
X267459Y84248D01*
X267459Y99352D01*
X268948Y100841D01*
X286552Y100841D01*
X288041Y99352D01*
X288041Y84248D01*
X286552Y82759D01*
X280427Y82759D01*
X280356Y82748D01*
X280284Y82746D01*
X280236Y82728D01*
X280184Y82720D01*
X280121Y82686D01*
X280053Y82661D01*
X280013Y82629D01*
X279967Y82604D01*
X279917Y82552D01*
X279861Y82508D01*
X279833Y82464D01*
X279797Y82426D01*
X279767Y82361D01*
X279728Y82301D01*
X279716Y82250D01*
X279694Y82203D01*
X279686Y82132D01*
X279668Y82062D01*
X279672Y82010D01*
X279667Y81959D01*
X279682Y81888D01*
X279688Y81817D01*
X279708Y81769D01*
X279719Y81718D01*
X279756Y81657D01*
X279784Y81591D01*
X279829Y81535D01*
X279845Y81507D01*
X279863Y81492D01*
X279889Y81460D01*
X312985Y48364D01*
X313059Y48311D01*
X313128Y48251D01*
X313158Y48239D01*
X313184Y48220D01*
X313271Y48193D01*
X313356Y48159D01*
X313397Y48155D01*
X313420Y48148D01*
X313452Y48149D01*
X313523Y48141D01*
X328252Y48141D01*
X329662Y46731D01*
X329678Y46720D01*
X329690Y46704D01*
X329778Y46648D01*
X329861Y46588D01*
X329880Y46582D01*
X329897Y46571D01*
X329998Y46546D01*
X330097Y46516D01*
X330116Y46516D01*
X330136Y46511D01*
X330239Y46519D01*
X330342Y46522D01*
X330361Y46529D01*
X330381Y46530D01*
X330476Y46571D01*
X330573Y46606D01*
X330589Y46619D01*
X330607Y46627D01*
X330738Y46731D01*
X332148Y48141D01*
X346877Y48141D01*
X346967Y48155D01*
X347058Y48163D01*
X347088Y48175D01*
X347120Y48180D01*
X347200Y48223D01*
X347284Y48259D01*
X347316Y48285D01*
X347337Y48296D01*
X347359Y48319D01*
X347415Y48364D01*
X381991Y82939D01*
X382003Y82955D01*
X382018Y82968D01*
X382074Y83055D01*
X382134Y83139D01*
X382140Y83158D01*
X382151Y83175D01*
X382176Y83275D01*
X382207Y83374D01*
X382206Y83394D01*
X382211Y83413D01*
X382203Y83516D01*
X382200Y83620D01*
X382194Y83639D01*
X382192Y83659D01*
X382152Y83753D01*
X382116Y83851D01*
X382104Y83867D01*
X382096Y83885D01*
X381991Y84016D01*
X381759Y84248D01*
X381759Y99352D01*
X383248Y100841D01*
X400852Y100841D01*
X402341Y99352D01*
X402341Y84248D01*
X400852Y82759D01*
X394727Y82759D01*
X394656Y82748D01*
X394584Y82746D01*
X394536Y82728D01*
X394484Y82720D01*
X394421Y82686D01*
X394353Y82661D01*
X394313Y82629D01*
X394267Y82604D01*
X394217Y82552D01*
X394161Y82508D01*
X394133Y82464D01*
X394097Y82426D01*
X394067Y82361D01*
X394028Y82301D01*
X394016Y82250D01*
X393994Y82203D01*
X393986Y82132D01*
X393968Y82062D01*
X393972Y82010D01*
X393967Y81959D01*
X393982Y81888D01*
X393988Y81817D01*
X394008Y81769D01*
X394019Y81718D01*
X394056Y81657D01*
X394084Y81591D01*
X394129Y81535D01*
X394145Y81507D01*
X394163Y81492D01*
X394189Y81460D01*
X427285Y48364D01*
X427359Y48311D01*
X427428Y48251D01*
X427458Y48239D01*
X427484Y48220D01*
X427571Y48193D01*
X427656Y48159D01*
X427697Y48155D01*
X427720Y48148D01*
X427752Y48149D01*
X427823Y48141D01*
X442552Y48141D01*
X443962Y46731D01*
X443978Y46720D01*
X443990Y46704D01*
X444078Y46648D01*
X444161Y46588D01*
X444180Y46582D01*
X444197Y46571D01*
X444298Y46546D01*
X444397Y46516D01*
X444416Y46516D01*
X444436Y46511D01*
X444539Y46519D01*
X444642Y46522D01*
X444661Y46529D01*
X444681Y46530D01*
X444776Y46571D01*
X444873Y46606D01*
X444889Y46619D01*
X444907Y46627D01*
X445038Y46731D01*
X446448Y48141D01*
X461177Y48141D01*
X461267Y48155D01*
X461358Y48163D01*
X461388Y48175D01*
X461420Y48180D01*
X461500Y48223D01*
X461584Y48259D01*
X461616Y48285D01*
X461637Y48296D01*
X461659Y48319D01*
X461715Y48364D01*
X496291Y82939D01*
X496303Y82955D01*
X496318Y82968D01*
X496374Y83055D01*
X496434Y83139D01*
X496440Y83158D01*
X496451Y83175D01*
X496476Y83275D01*
X496507Y83374D01*
X496506Y83394D01*
X496511Y83413D01*
X496503Y83516D01*
X496500Y83620D01*
X496494Y83639D01*
X496492Y83659D01*
X496452Y83753D01*
X496416Y83851D01*
X496404Y83867D01*
X496396Y83885D01*
X496291Y84016D01*
X496059Y84248D01*
X496059Y99352D01*
X497548Y100841D01*
X515152Y100841D01*
X516641Y99352D01*
X516641Y84248D01*
X515152Y82759D01*
X509027Y82759D01*
X508956Y82748D01*
X508884Y82746D01*
X508836Y82728D01*
X508784Y82720D01*
X508721Y82686D01*
X508653Y82661D01*
X508613Y82629D01*
X508567Y82604D01*
X508517Y82552D01*
X508461Y82508D01*
X508433Y82464D01*
X508397Y82426D01*
X508367Y82361D01*
X508328Y82301D01*
X508316Y82250D01*
X508294Y82203D01*
X508286Y82132D01*
X508268Y82062D01*
X508272Y82010D01*
X508267Y81959D01*
X508282Y81888D01*
X508288Y81817D01*
X508308Y81769D01*
X508319Y81718D01*
X508356Y81657D01*
X508384Y81591D01*
X508429Y81535D01*
X508445Y81507D01*
X508463Y81492D01*
X508489Y81460D01*
X541585Y48364D01*
X541659Y48311D01*
X541728Y48251D01*
X541758Y48239D01*
X541784Y48220D01*
X541871Y48193D01*
X541956Y48159D01*
X541997Y48155D01*
X542020Y48148D01*
X542052Y48149D01*
X542123Y48141D01*
X556852Y48141D01*
X558262Y46731D01*
X558278Y46720D01*
X558290Y46704D01*
X558378Y46648D01*
X558461Y46588D01*
X558480Y46582D01*
X558497Y46571D01*
X558598Y46546D01*
X558697Y46516D01*
X558716Y46516D01*
X558736Y46511D01*
X558839Y46519D01*
X558942Y46522D01*
X558961Y46529D01*
X558981Y46530D01*
X559076Y46571D01*
X559173Y46606D01*
X559189Y46619D01*
X559207Y46627D01*
X559338Y46731D01*
X560748Y48141D01*
X575477Y48141D01*
X575567Y48155D01*
X575658Y48163D01*
X575688Y48175D01*
X575720Y48180D01*
X575800Y48223D01*
X575884Y48259D01*
X575916Y48285D01*
X575937Y48296D01*
X575959Y48319D01*
X576015Y48364D01*
X610591Y82939D01*
X610603Y82956D01*
X610618Y82968D01*
X610674Y83055D01*
X610734Y83139D01*
X610740Y83158D01*
X610751Y83175D01*
X610776Y83275D01*
X610807Y83374D01*
X610806Y83394D01*
X610811Y83413D01*
X610803Y83516D01*
X610800Y83620D01*
X610794Y83639D01*
X610792Y83659D01*
X610752Y83754D01*
X610716Y83851D01*
X610704Y83867D01*
X610696Y83885D01*
X610591Y84016D01*
X610359Y84248D01*
X610359Y99352D01*
X611848Y100841D01*
X629452Y100841D01*
X630941Y99352D01*
X630941Y84248D01*
X629452Y82759D01*
X623327Y82759D01*
X623256Y82748D01*
X623184Y82746D01*
X623135Y82728D01*
X623084Y82720D01*
X623021Y82686D01*
X622953Y82661D01*
X622913Y82629D01*
X622867Y82604D01*
X622817Y82553D01*
X622761Y82508D01*
X622733Y82464D01*
X622697Y82426D01*
X622667Y82361D01*
X622628Y82301D01*
X622616Y82250D01*
X622594Y82203D01*
X622586Y82132D01*
X622568Y82062D01*
X622572Y82010D01*
X622567Y81959D01*
X622582Y81888D01*
X622588Y81817D01*
X622608Y81769D01*
X622619Y81718D01*
X622656Y81657D01*
X622684Y81591D01*
X622729Y81535D01*
X622745Y81507D01*
X622763Y81492D01*
X622789Y81460D01*
X655885Y48364D01*
X655959Y48311D01*
X656028Y48251D01*
X656058Y48239D01*
X656084Y48220D01*
X656171Y48193D01*
X656256Y48159D01*
X656297Y48155D01*
X656319Y48148D01*
X656352Y48149D01*
X656423Y48141D01*
X671152Y48141D01*
X672562Y46731D01*
X672578Y46720D01*
X672590Y46704D01*
X672678Y46648D01*
X672761Y46588D01*
X672780Y46582D01*
X672797Y46571D01*
X672898Y46546D01*
X672997Y46516D01*
X673016Y46516D01*
X673036Y46511D01*
X673139Y46519D01*
X673242Y46522D01*
X673261Y46529D01*
X673281Y46530D01*
X673376Y46571D01*
X673473Y46606D01*
X673489Y46619D01*
X673507Y46627D01*
X673638Y46731D01*
X675048Y48141D01*
X689777Y48141D01*
X689867Y48155D01*
X689958Y48163D01*
X689988Y48175D01*
X690020Y48180D01*
X690100Y48223D01*
X690184Y48259D01*
X690216Y48285D01*
X690237Y48296D01*
X690259Y48319D01*
X690315Y48364D01*
X724891Y82939D01*
X724903Y82956D01*
X724918Y82968D01*
X724974Y83055D01*
X725034Y83139D01*
X725040Y83158D01*
X725051Y83175D01*
X725076Y83275D01*
X725107Y83374D01*
X725106Y83394D01*
X725111Y83413D01*
X725103Y83516D01*
X725100Y83620D01*
X725094Y83639D01*
X725092Y83659D01*
X725052Y83754D01*
X725016Y83851D01*
X725004Y83867D01*
X724996Y83885D01*
X724891Y84016D01*
X724659Y84248D01*
X724659Y99352D01*
X726148Y100841D01*
X743752Y100841D01*
X745241Y99352D01*
X745241Y84248D01*
X743752Y82759D01*
X737627Y82759D01*
X737556Y82748D01*
X737484Y82746D01*
X737436Y82728D01*
X737384Y82720D01*
X737321Y82686D01*
X737253Y82661D01*
X737213Y82629D01*
X737167Y82604D01*
X737117Y82552D01*
X737061Y82508D01*
X737033Y82464D01*
X736997Y82426D01*
X736967Y82361D01*
X736928Y82301D01*
X736916Y82250D01*
X736894Y82203D01*
X736886Y82132D01*
X736868Y82062D01*
X736872Y82010D01*
X736867Y81959D01*
X736882Y81888D01*
X736888Y81817D01*
X736908Y81769D01*
X736919Y81718D01*
X736956Y81657D01*
X736984Y81591D01*
X737029Y81535D01*
X737045Y81507D01*
X737063Y81492D01*
X737089Y81460D01*
X770185Y48364D01*
X770259Y48311D01*
X770328Y48251D01*
X770358Y48239D01*
X770384Y48220D01*
X770471Y48193D01*
X770556Y48159D01*
X770597Y48155D01*
X770620Y48148D01*
X770652Y48149D01*
X770723Y48141D01*
X785452Y48141D01*
X786862Y46731D01*
X786878Y46720D01*
X786890Y46704D01*
X786978Y46648D01*
X787061Y46588D01*
X787080Y46582D01*
X787097Y46571D01*
X787198Y46546D01*
X787297Y46516D01*
X787316Y46516D01*
X787336Y46511D01*
X787439Y46519D01*
X787542Y46522D01*
X787561Y46529D01*
X787581Y46530D01*
X787676Y46571D01*
X787773Y46606D01*
X787789Y46619D01*
X787807Y46627D01*
X787938Y46731D01*
X789348Y48141D01*
X804077Y48141D01*
X804167Y48155D01*
X804258Y48163D01*
X804288Y48175D01*
X804320Y48180D01*
X804400Y48223D01*
X804484Y48259D01*
X804516Y48285D01*
X804537Y48296D01*
X804559Y48319D01*
X804615Y48364D01*
X839191Y82939D01*
X839203Y82956D01*
X839218Y82968D01*
X839274Y83055D01*
X839334Y83139D01*
X839340Y83158D01*
X839351Y83175D01*
X839376Y83275D01*
X839407Y83374D01*
X839406Y83394D01*
X839411Y83413D01*
X839403Y83516D01*
X839400Y83620D01*
X839394Y83639D01*
X839392Y83659D01*
X839352Y83754D01*
X839316Y83851D01*
X839304Y83867D01*
X839296Y83885D01*
X839191Y84016D01*
X838959Y84248D01*
X838959Y99352D01*
X840448Y100841D01*
X858052Y100841D01*
X859541Y99352D01*
X859541Y84248D01*
X858052Y82759D01*
X850823Y82759D01*
X850733Y82745D01*
X850642Y82737D01*
X850612Y82725D01*
X850580Y82720D01*
X850500Y82677D01*
X850416Y82641D01*
X850384Y82615D01*
X850363Y82604D01*
X850341Y82581D01*
X850285Y82536D01*
X830263Y62514D01*
X830221Y62456D01*
X830171Y62404D01*
X830149Y62357D01*
X830119Y62315D01*
X830098Y62246D01*
X830068Y62181D01*
X830062Y62129D01*
X830047Y62079D01*
X830049Y62008D01*
X830041Y61937D01*
X830052Y61886D01*
X830053Y61834D01*
X830078Y61766D01*
X830093Y61696D01*
X830120Y61651D01*
X830138Y61603D01*
X830182Y61547D01*
X830219Y61485D01*
X830259Y61451D01*
X830291Y61411D01*
X830352Y61372D01*
X830406Y61325D01*
X830454Y61306D01*
X830498Y61278D01*
X830568Y61260D01*
X830634Y61233D01*
X830706Y61225D01*
X830737Y61217D01*
X830760Y61219D01*
X830801Y61215D01*
X903224Y61215D01*
X903244Y61218D01*
X903263Y61216D01*
X903365Y61238D01*
X903467Y61254D01*
X903484Y61264D01*
X903504Y61268D01*
X903593Y61321D01*
X903684Y61370D01*
X903698Y61384D01*
X903715Y61394D01*
X903782Y61473D01*
X903854Y61548D01*
X903862Y61566D01*
X903875Y61581D01*
X903914Y61677D01*
X903957Y61771D01*
X903959Y61791D01*
X903967Y61809D01*
X903985Y61976D01*
X903985Y144051D01*
X903971Y144141D01*
X903963Y144232D01*
X903951Y144262D01*
X903946Y144294D01*
X903903Y144374D01*
X903867Y144458D01*
X903841Y144490D01*
X903830Y144511D01*
X903807Y144533D01*
X903762Y144589D01*
X871886Y176466D01*
X871848Y176493D01*
X871817Y176527D01*
X871749Y176564D01*
X871686Y176610D01*
X871642Y176623D01*
X871602Y176645D01*
X871525Y176659D01*
X871451Y176682D01*
X871405Y176681D01*
X871360Y176689D01*
X871283Y176678D01*
X871205Y176676D01*
X871162Y176660D01*
X871116Y176653D01*
X871047Y176618D01*
X870974Y176591D01*
X870938Y176562D01*
X870897Y176542D01*
X870843Y176486D01*
X870782Y176437D01*
X870757Y176399D01*
X870725Y176366D01*
X870659Y176246D01*
X870649Y176231D01*
X870648Y176226D01*
X870644Y176219D01*
X869630Y173771D01*
X867629Y171770D01*
X865015Y170687D01*
X862185Y170687D01*
X859571Y171770D01*
X858040Y173301D01*
X857982Y173343D01*
X857930Y173392D01*
X857883Y173414D01*
X857841Y173444D01*
X857772Y173465D01*
X857707Y173496D01*
X857655Y173501D01*
X857605Y173517D01*
X857534Y173515D01*
X857463Y173523D01*
X857412Y173512D01*
X857360Y173510D01*
X857292Y173486D01*
X857222Y173471D01*
X857177Y173444D01*
X857129Y173426D01*
X857073Y173381D01*
X857011Y173344D01*
X856977Y173305D01*
X856937Y173272D01*
X856898Y173212D01*
X856851Y173157D01*
X856832Y173109D01*
X856804Y173065D01*
X856786Y172996D01*
X856759Y172929D01*
X856751Y172858D01*
X856743Y172827D01*
X856745Y172803D01*
X856741Y172763D01*
X856741Y169248D01*
X855252Y167759D01*
X840148Y167759D01*
X838738Y169169D01*
X838722Y169180D01*
X838710Y169196D01*
X838622Y169252D01*
X838539Y169312D01*
X838520Y169318D01*
X838503Y169329D01*
X838402Y169354D01*
X838303Y169384D01*
X838284Y169384D01*
X838264Y169389D01*
X838161Y169381D01*
X838058Y169378D01*
X838039Y169371D01*
X838019Y169370D01*
X837924Y169329D01*
X837827Y169294D01*
X837811Y169281D01*
X837793Y169273D01*
X837662Y169169D01*
X836138Y167645D01*
X836085Y167571D01*
X836025Y167501D01*
X836013Y167471D01*
X835994Y167445D01*
X835967Y167358D01*
X835933Y167273D01*
X835929Y167232D01*
X835922Y167210D01*
X835923Y167178D01*
X835915Y167106D01*
X835915Y144526D01*
X835918Y144506D01*
X835916Y144487D01*
X835938Y144385D01*
X835954Y144283D01*
X835964Y144266D01*
X835968Y144246D01*
X836021Y144157D01*
X836070Y144066D01*
X836084Y144052D01*
X836094Y144035D01*
X836173Y143968D01*
X836248Y143896D01*
X836266Y143888D01*
X836281Y143875D01*
X836377Y143836D01*
X836471Y143793D01*
X836491Y143791D01*
X836509Y143783D01*
X836676Y143765D01*
X838198Y143765D01*
X838218Y143768D01*
X838237Y143766D01*
X838339Y143788D01*
X838441Y143804D01*
X838458Y143814D01*
X838478Y143818D01*
X838567Y143871D01*
X838658Y143920D01*
X838672Y143934D01*
X838689Y143944D01*
X838756Y144023D01*
X838828Y144098D01*
X838836Y144116D01*
X838849Y144131D01*
X838888Y144227D01*
X838931Y144321D01*
X838932Y144325D01*
X840448Y145841D01*
X858052Y145841D01*
X859541Y144352D01*
X859541Y129248D01*
X858052Y127759D01*
X840448Y127759D01*
X838959Y129248D01*
X838959Y134874D01*
X838956Y134894D01*
X838958Y134913D01*
X838936Y135015D01*
X838920Y135117D01*
X838910Y135134D01*
X838906Y135154D01*
X838853Y135243D01*
X838804Y135334D01*
X838790Y135348D01*
X838780Y135365D01*
X838701Y135432D01*
X838626Y135504D01*
X838608Y135512D01*
X838593Y135525D01*
X838497Y135564D01*
X838403Y135607D01*
X838383Y135609D01*
X838365Y135617D01*
X838198Y135635D01*
X830166Y135635D01*
X827785Y138016D01*
X827785Y147574D01*
X827782Y147594D01*
X827784Y147613D01*
X827762Y147715D01*
X827746Y147817D01*
X827736Y147834D01*
X827732Y147854D01*
X827679Y147943D01*
X827630Y148034D01*
X827616Y148048D01*
X827606Y148065D01*
X827527Y148132D01*
X827452Y148204D01*
X827434Y148212D01*
X827419Y148225D01*
X827323Y148264D01*
X827229Y148307D01*
X827209Y148309D01*
X827191Y148317D01*
X827024Y148335D01*
X741426Y148335D01*
X741406Y148332D01*
X741387Y148334D01*
X741285Y148312D01*
X741183Y148296D01*
X741166Y148286D01*
X741146Y148282D01*
X741057Y148229D01*
X740966Y148180D01*
X740952Y148166D01*
X740935Y148156D01*
X740868Y148077D01*
X740796Y148002D01*
X740788Y147984D01*
X740775Y147969D01*
X740736Y147873D01*
X740693Y147779D01*
X740691Y147759D01*
X740683Y147741D01*
X740665Y147574D01*
X740665Y146602D01*
X740668Y146582D01*
X740666Y146563D01*
X740688Y146461D01*
X740704Y146359D01*
X740714Y146342D01*
X740718Y146322D01*
X740771Y146233D01*
X740820Y146142D01*
X740834Y146128D01*
X740844Y146111D01*
X740923Y146044D01*
X740998Y145972D01*
X741016Y145964D01*
X741031Y145951D01*
X741127Y145912D01*
X741221Y145869D01*
X741241Y145867D01*
X741259Y145859D01*
X741426Y145841D01*
X743752Y145841D01*
X745241Y144352D01*
X745241Y129248D01*
X743752Y127759D01*
X726148Y127759D01*
X724659Y129248D01*
X724659Y144352D01*
X726148Y145841D01*
X731774Y145841D01*
X731794Y145844D01*
X731813Y145842D01*
X731915Y145864D01*
X732017Y145880D01*
X732034Y145890D01*
X732054Y145894D01*
X732143Y145947D01*
X732234Y145996D01*
X732248Y146010D01*
X732265Y146020D01*
X732332Y146099D01*
X732404Y146174D01*
X732412Y146192D01*
X732425Y146207D01*
X732464Y146303D01*
X732507Y146397D01*
X732509Y146417D01*
X732517Y146435D01*
X732535Y146602D01*
X732535Y147574D01*
X732532Y147594D01*
X732534Y147613D01*
X732512Y147715D01*
X732496Y147817D01*
X732486Y147834D01*
X732482Y147854D01*
X732429Y147943D01*
X732380Y148034D01*
X732366Y148048D01*
X732356Y148065D01*
X732277Y148132D01*
X732202Y148204D01*
X732184Y148212D01*
X732169Y148225D01*
X732073Y148264D01*
X731979Y148307D01*
X731959Y148309D01*
X731941Y148317D01*
X731774Y148335D01*
X608551Y148335D01*
X608480Y148324D01*
X608408Y148322D01*
X608359Y148304D01*
X608308Y148296D01*
X608245Y148262D01*
X608177Y148237D01*
X608137Y148205D01*
X608091Y148180D01*
X608041Y148129D01*
X607985Y148084D01*
X607957Y148040D01*
X607921Y148002D01*
X607891Y147937D01*
X607852Y147877D01*
X607840Y147826D01*
X607818Y147779D01*
X607810Y147708D01*
X607792Y147638D01*
X607796Y147586D01*
X607791Y147535D01*
X607806Y147464D01*
X607812Y147393D01*
X607832Y147345D01*
X607843Y147294D01*
X607880Y147233D01*
X607908Y147167D01*
X607953Y147111D01*
X607969Y147083D01*
X607987Y147068D01*
X608013Y147036D01*
X609989Y145059D01*
X610005Y145047D01*
X610018Y145032D01*
X610105Y144976D01*
X610189Y144916D01*
X610208Y144910D01*
X610225Y144899D01*
X610325Y144874D01*
X610424Y144843D01*
X610444Y144844D01*
X610463Y144839D01*
X610566Y144847D01*
X610670Y144850D01*
X610689Y144856D01*
X610709Y144858D01*
X610803Y144898D01*
X610901Y144934D01*
X610917Y144946D01*
X610935Y144954D01*
X611066Y145059D01*
X611848Y145841D01*
X629452Y145841D01*
X630941Y144352D01*
X630941Y129248D01*
X629452Y127759D01*
X611848Y127759D01*
X610359Y129248D01*
X610359Y134874D01*
X610356Y134894D01*
X610358Y134913D01*
X610336Y135015D01*
X610320Y135117D01*
X610310Y135134D01*
X610306Y135154D01*
X610253Y135243D01*
X610204Y135334D01*
X610190Y135348D01*
X610180Y135365D01*
X610101Y135432D01*
X610026Y135504D01*
X610008Y135512D01*
X609993Y135525D01*
X609897Y135564D01*
X609803Y135607D01*
X609783Y135609D01*
X609765Y135617D01*
X609598Y135635D01*
X607916Y135635D01*
X595439Y148112D01*
X595365Y148165D01*
X595296Y148225D01*
X595266Y148237D01*
X595240Y148256D01*
X595153Y148283D01*
X595068Y148317D01*
X595027Y148321D01*
X595004Y148328D01*
X594972Y148327D01*
X594901Y148335D01*
X512826Y148335D01*
X512806Y148332D01*
X512787Y148334D01*
X512685Y148312D01*
X512583Y148296D01*
X512566Y148286D01*
X512546Y148282D01*
X512457Y148229D01*
X512366Y148180D01*
X512352Y148166D01*
X512335Y148156D01*
X512268Y148077D01*
X512196Y148002D01*
X512188Y147984D01*
X512175Y147969D01*
X512136Y147873D01*
X512093Y147779D01*
X512091Y147759D01*
X512083Y147741D01*
X512065Y147574D01*
X512065Y146602D01*
X512068Y146582D01*
X512066Y146563D01*
X512088Y146461D01*
X512104Y146359D01*
X512114Y146342D01*
X512118Y146322D01*
X512171Y146233D01*
X512220Y146142D01*
X512234Y146128D01*
X512244Y146111D01*
X512323Y146044D01*
X512398Y145972D01*
X512416Y145964D01*
X512431Y145951D01*
X512527Y145912D01*
X512621Y145869D01*
X512641Y145867D01*
X512659Y145859D01*
X512826Y145841D01*
X515152Y145841D01*
X516641Y144352D01*
X516641Y129248D01*
X515152Y127759D01*
X497548Y127759D01*
X496059Y129248D01*
X496059Y144352D01*
X497548Y145841D01*
X503174Y145841D01*
X503194Y145844D01*
X503213Y145842D01*
X503315Y145864D01*
X503417Y145880D01*
X503434Y145890D01*
X503454Y145894D01*
X503543Y145947D01*
X503634Y145996D01*
X503648Y146010D01*
X503665Y146020D01*
X503732Y146099D01*
X503804Y146174D01*
X503812Y146192D01*
X503825Y146207D01*
X503864Y146303D01*
X503907Y146397D01*
X503909Y146417D01*
X503917Y146435D01*
X503935Y146602D01*
X503935Y147574D01*
X503932Y147594D01*
X503934Y147613D01*
X503912Y147715D01*
X503896Y147817D01*
X503886Y147834D01*
X503882Y147854D01*
X503829Y147943D01*
X503780Y148034D01*
X503766Y148048D01*
X503756Y148065D01*
X503677Y148132D01*
X503602Y148204D01*
X503584Y148212D01*
X503569Y148225D01*
X503473Y148264D01*
X503379Y148307D01*
X503359Y148309D01*
X503341Y148317D01*
X503174Y148335D01*
X398526Y148335D01*
X398506Y148332D01*
X398487Y148334D01*
X398385Y148312D01*
X398283Y148296D01*
X398266Y148286D01*
X398246Y148282D01*
X398157Y148229D01*
X398066Y148180D01*
X398052Y148166D01*
X398035Y148156D01*
X397968Y148077D01*
X397896Y148002D01*
X397888Y147984D01*
X397875Y147969D01*
X397836Y147873D01*
X397793Y147779D01*
X397791Y147759D01*
X397783Y147741D01*
X397765Y147574D01*
X397765Y146602D01*
X397768Y146582D01*
X397766Y146563D01*
X397788Y146461D01*
X397804Y146359D01*
X397814Y146342D01*
X397818Y146322D01*
X397871Y146233D01*
X397920Y146142D01*
X397934Y146128D01*
X397944Y146111D01*
X398023Y146044D01*
X398098Y145972D01*
X398116Y145964D01*
X398131Y145951D01*
X398227Y145912D01*
X398321Y145869D01*
X398341Y145867D01*
X398359Y145859D01*
X398526Y145841D01*
X400852Y145841D01*
X402341Y144352D01*
X402341Y129248D01*
X400852Y127759D01*
X383248Y127759D01*
X381759Y129248D01*
X381759Y134874D01*
X381756Y134894D01*
X381758Y134913D01*
X381736Y135015D01*
X381720Y135117D01*
X381710Y135134D01*
X381706Y135154D01*
X381653Y135243D01*
X381604Y135334D01*
X381590Y135348D01*
X381580Y135365D01*
X381501Y135432D01*
X381426Y135504D01*
X381408Y135512D01*
X381393Y135525D01*
X381297Y135564D01*
X381203Y135607D01*
X381183Y135609D01*
X381165Y135617D01*
X380998Y135635D01*
X379316Y135635D01*
X366839Y148112D01*
X366765Y148165D01*
X366696Y148225D01*
X366666Y148237D01*
X366640Y148256D01*
X366553Y148283D01*
X366468Y148317D01*
X366427Y148321D01*
X366404Y148328D01*
X366372Y148327D01*
X366301Y148335D01*
X284226Y148335D01*
X284206Y148332D01*
X284187Y148334D01*
X284085Y148312D01*
X283983Y148296D01*
X283966Y148286D01*
X283946Y148282D01*
X283857Y148229D01*
X283766Y148180D01*
X283752Y148166D01*
X283735Y148156D01*
X283668Y148077D01*
X283596Y148002D01*
X283588Y147984D01*
X283575Y147969D01*
X283536Y147873D01*
X283493Y147779D01*
X283491Y147759D01*
X283483Y147741D01*
X283465Y147574D01*
X283465Y146602D01*
X283468Y146582D01*
X283466Y146563D01*
X283488Y146461D01*
X283504Y146359D01*
X283514Y146342D01*
X283518Y146322D01*
X283571Y146233D01*
X283620Y146142D01*
X283634Y146128D01*
X283644Y146111D01*
X283723Y146044D01*
X283798Y145972D01*
X283816Y145964D01*
X283831Y145951D01*
X283927Y145912D01*
X284021Y145869D01*
X284041Y145867D01*
X284059Y145859D01*
X284226Y145841D01*
X286552Y145841D01*
X288041Y144352D01*
X288041Y129248D01*
X286552Y127759D01*
X268948Y127759D01*
X267459Y129248D01*
X267459Y144352D01*
X268948Y145841D01*
X274574Y145841D01*
X274594Y145844D01*
X274613Y145842D01*
X274715Y145864D01*
X274817Y145880D01*
X274834Y145890D01*
X274854Y145894D01*
X274943Y145947D01*
X275034Y145996D01*
X275048Y146010D01*
X275065Y146020D01*
X275132Y146099D01*
X275204Y146174D01*
X275212Y146192D01*
X275225Y146207D01*
X275264Y146303D01*
X275307Y146397D01*
X275309Y146417D01*
X275317Y146435D01*
X275335Y146602D01*
X275335Y147574D01*
X275332Y147594D01*
X275334Y147613D01*
X275312Y147715D01*
X275296Y147817D01*
X275286Y147834D01*
X275282Y147854D01*
X275229Y147943D01*
X275180Y148034D01*
X275166Y148048D01*
X275156Y148065D01*
X275077Y148132D01*
X275002Y148204D01*
X274984Y148212D01*
X274969Y148225D01*
X274873Y148264D01*
X274779Y148307D01*
X274759Y148309D01*
X274741Y148317D01*
X274574Y148335D01*
X169926Y148335D01*
X169906Y148332D01*
X169887Y148334D01*
X169785Y148312D01*
X169683Y148296D01*
X169666Y148286D01*
X169646Y148282D01*
X169557Y148229D01*
X169466Y148180D01*
X169452Y148166D01*
X169435Y148156D01*
X169368Y148077D01*
X169296Y148002D01*
X169288Y147984D01*
X169275Y147969D01*
X169236Y147873D01*
X169193Y147779D01*
X169191Y147759D01*
X169183Y147741D01*
X169165Y147574D01*
X169165Y146602D01*
X169168Y146582D01*
X169166Y146563D01*
X169188Y146461D01*
X169204Y146359D01*
X169214Y146342D01*
X169218Y146322D01*
X169271Y146233D01*
X169320Y146142D01*
X169334Y146128D01*
X169344Y146111D01*
X169423Y146044D01*
X169498Y145972D01*
X169516Y145964D01*
X169531Y145951D01*
X169627Y145912D01*
X169721Y145869D01*
X169741Y145867D01*
X169759Y145859D01*
X169926Y145841D01*
X172252Y145841D01*
X173741Y144352D01*
X173741Y129248D01*
X172252Y127759D01*
X154648Y127759D01*
X153159Y129248D01*
X153159Y134874D01*
X153156Y134894D01*
X153158Y134913D01*
X153136Y135015D01*
X153120Y135117D01*
X153110Y135134D01*
X153106Y135154D01*
X153053Y135243D01*
X153004Y135334D01*
X152990Y135348D01*
X152980Y135365D01*
X152901Y135432D01*
X152826Y135504D01*
X152808Y135512D01*
X152793Y135525D01*
X152697Y135564D01*
X152603Y135607D01*
X152583Y135609D01*
X152565Y135617D01*
X152398Y135635D01*
X150716Y135635D01*
X138239Y148112D01*
X138165Y148165D01*
X138096Y148225D01*
X138066Y148237D01*
X138040Y148256D01*
X137953Y148283D01*
X137868Y148317D01*
X137827Y148321D01*
X137804Y148328D01*
X137772Y148327D01*
X137701Y148335D01*
X55626Y148335D01*
X55606Y148332D01*
X55587Y148334D01*
X55485Y148312D01*
X55383Y148296D01*
X55366Y148286D01*
X55346Y148282D01*
X55257Y148229D01*
X55166Y148180D01*
X55152Y148166D01*
X55135Y148156D01*
X55068Y148077D01*
X54996Y148002D01*
X54988Y147984D01*
X54975Y147969D01*
X54936Y147873D01*
X54893Y147779D01*
X54891Y147759D01*
X54883Y147741D01*
X54865Y147574D01*
X54865Y146602D01*
X54868Y146582D01*
X54866Y146563D01*
X54888Y146461D01*
X54904Y146359D01*
X54914Y146342D01*
X54918Y146322D01*
X54971Y146233D01*
X55020Y146142D01*
X55034Y146128D01*
X55044Y146111D01*
X55123Y146044D01*
X55198Y145972D01*
X55216Y145964D01*
X55231Y145951D01*
X55327Y145912D01*
X55421Y145869D01*
X55441Y145867D01*
X55459Y145859D01*
X55626Y145841D01*
X57952Y145841D01*
X59441Y144352D01*
X59441Y129248D01*
X57952Y127759D01*
X40348Y127759D01*
X38859Y129248D01*
X38859Y144352D01*
X40348Y145841D01*
X45974Y145841D01*
X45994Y145844D01*
X46013Y145842D01*
X46115Y145864D01*
X46217Y145880D01*
X46234Y145890D01*
X46254Y145894D01*
X46343Y145947D01*
X46434Y145996D01*
X46448Y146010D01*
X46465Y146020D01*
X46532Y146099D01*
X46604Y146174D01*
X46612Y146192D01*
X46625Y146207D01*
X46664Y146303D01*
X46707Y146397D01*
X46709Y146417D01*
X46717Y146435D01*
X46735Y146602D01*
X46735Y154084D01*
X49116Y156465D01*
X141384Y156465D01*
X152789Y145059D01*
X152806Y145047D01*
X152818Y145032D01*
X152905Y144976D01*
X152989Y144916D01*
X153008Y144910D01*
X153025Y144899D01*
X153125Y144874D01*
X153224Y144843D01*
X153244Y144844D01*
X153263Y144839D01*
X153366Y144847D01*
X153470Y144850D01*
X153489Y144856D01*
X153509Y144858D01*
X153603Y144898D01*
X153701Y144934D01*
X153717Y144946D01*
X153735Y144954D01*
X153866Y145059D01*
X154648Y145841D01*
X160274Y145841D01*
X160294Y145844D01*
X160313Y145842D01*
X160415Y145864D01*
X160517Y145880D01*
X160534Y145890D01*
X160554Y145894D01*
X160643Y145947D01*
X160734Y145996D01*
X160748Y146010D01*
X160765Y146020D01*
X160832Y146099D01*
X160904Y146174D01*
X160912Y146192D01*
X160925Y146207D01*
X160964Y146303D01*
X161007Y146397D01*
X161009Y146417D01*
X161017Y146435D01*
X161035Y146602D01*
X161035Y154084D01*
X163416Y156465D01*
X369984Y156465D01*
X381389Y145059D01*
X381405Y145047D01*
X381418Y145032D01*
X381505Y144976D01*
X381589Y144916D01*
X381608Y144910D01*
X381625Y144899D01*
X381725Y144874D01*
X381824Y144843D01*
X381844Y144844D01*
X381863Y144839D01*
X381966Y144847D01*
X382070Y144850D01*
X382089Y144856D01*
X382109Y144858D01*
X382203Y144898D01*
X382301Y144934D01*
X382317Y144946D01*
X382335Y144954D01*
X382466Y145059D01*
X383248Y145841D01*
X388874Y145841D01*
X388894Y145844D01*
X388913Y145842D01*
X389015Y145864D01*
X389117Y145880D01*
X389134Y145890D01*
X389154Y145894D01*
X389243Y145947D01*
X389334Y145996D01*
X389348Y146010D01*
X389365Y146020D01*
X389432Y146099D01*
X389504Y146174D01*
X389512Y146192D01*
X389525Y146207D01*
X389564Y146303D01*
X389607Y146397D01*
X389609Y146417D01*
X389617Y146435D01*
X389635Y146602D01*
X389635Y154084D01*
X392016Y156465D01*
X563151Y156465D01*
X563241Y156479D01*
X563332Y156487D01*
X563362Y156499D01*
X563394Y156504D01*
X563474Y156547D01*
X563558Y156583D01*
X563590Y156609D01*
X563611Y156620D01*
X563633Y156643D01*
X563689Y156688D01*
X666813Y259812D01*
X666825Y259828D01*
X666841Y259840D01*
X666897Y259928D01*
X666957Y260011D01*
X666963Y260030D01*
X666974Y260047D01*
X666999Y260148D01*
X667029Y260247D01*
X667029Y260266D01*
X667034Y260286D01*
X667026Y260389D01*
X667023Y260492D01*
X667016Y260511D01*
X667014Y260531D01*
X666974Y260626D01*
X666938Y260723D01*
X666926Y260739D01*
X666918Y260757D01*
X666813Y260888D01*
X658939Y268762D01*
X658865Y268815D01*
X658796Y268875D01*
X658766Y268887D01*
X658740Y268906D01*
X658653Y268933D01*
X658568Y268967D01*
X658527Y268971D01*
X658504Y268978D01*
X658472Y268977D01*
X658401Y268985D01*
X648244Y268985D01*
X648154Y268971D01*
X648063Y268963D01*
X648033Y268951D01*
X648001Y268946D01*
X647920Y268903D01*
X647836Y268867D01*
X647804Y268841D01*
X647784Y268830D01*
X647761Y268807D01*
X647705Y268762D01*
X646452Y267509D01*
X622348Y267509D01*
X620859Y268998D01*
X620859Y277102D01*
X622348Y278591D01*
X646452Y278591D01*
X647705Y277338D01*
X647779Y277285D01*
X647849Y277225D01*
X647879Y277213D01*
X647905Y277194D01*
X647992Y277167D01*
X648077Y277133D01*
X648118Y277129D01*
X648140Y277122D01*
X648172Y277123D01*
X648244Y277115D01*
X662084Y277115D01*
X673289Y265909D01*
X673305Y265897D01*
X673318Y265882D01*
X673405Y265826D01*
X673489Y265766D01*
X673508Y265760D01*
X673525Y265749D01*
X673625Y265724D01*
X673724Y265693D01*
X673744Y265694D01*
X673763Y265689D01*
X673866Y265697D01*
X673970Y265700D01*
X673989Y265706D01*
X674009Y265708D01*
X674103Y265748D01*
X674201Y265784D01*
X674217Y265796D01*
X674235Y265804D01*
X674343Y265891D01*
X698452Y265891D01*
X699941Y264402D01*
X699941Y256298D01*
X698452Y254809D01*
X674344Y254809D01*
X674337Y254818D01*
X674250Y254874D01*
X674166Y254934D01*
X674147Y254940D01*
X674130Y254951D01*
X674030Y254976D01*
X673931Y255007D01*
X673911Y255006D01*
X673892Y255011D01*
X673789Y255003D01*
X673685Y255000D01*
X673666Y254994D01*
X673647Y254992D01*
X673552Y254952D01*
X673454Y254916D01*
X673439Y254904D01*
X673420Y254896D01*
X673289Y254791D01*
X576263Y157764D01*
X576221Y157706D01*
X576171Y157654D01*
X576149Y157607D01*
X576119Y157565D01*
X576098Y157496D01*
X576068Y157431D01*
X576062Y157379D01*
X576047Y157329D01*
X576049Y157258D01*
X576041Y157187D01*
X576052Y157136D01*
X576053Y157084D01*
X576078Y157016D01*
X576093Y156946D01*
X576120Y156902D01*
X576138Y156853D01*
X576182Y156797D01*
X576219Y156735D01*
X576259Y156701D01*
X576291Y156661D01*
X576352Y156622D01*
X576406Y156575D01*
X576454Y156556D01*
X576498Y156528D01*
X576568Y156510D01*
X576634Y156483D01*
X576706Y156475D01*
X576737Y156467D01*
X576760Y156469D01*
X576801Y156465D01*
X827024Y156465D01*
X827044Y156468D01*
X827063Y156466D01*
X827165Y156488D01*
X827267Y156504D01*
X827284Y156514D01*
X827304Y156518D01*
X827393Y156571D01*
X827484Y156620D01*
X827498Y156634D01*
X827515Y156644D01*
X827582Y156723D01*
X827654Y156798D01*
X827662Y156816D01*
X827675Y156831D01*
X827714Y156927D01*
X827757Y157021D01*
X827759Y157041D01*
X827767Y157059D01*
X827785Y157226D01*
X827785Y166998D01*
X827783Y167010D01*
X827784Y167018D01*
X827783Y167024D01*
X827784Y167037D01*
X827762Y167139D01*
X827746Y167241D01*
X827736Y167258D01*
X827732Y167278D01*
X827679Y167367D01*
X827630Y167458D01*
X827616Y167472D01*
X827606Y167489D01*
X827527Y167556D01*
X827452Y167628D01*
X827434Y167636D01*
X827419Y167649D01*
X827323Y167688D01*
X827229Y167731D01*
X827209Y167733D01*
X827191Y167741D01*
X827024Y167759D01*
X821148Y167759D01*
X819659Y169248D01*
X819659Y186352D01*
X821148Y187841D01*
X836252Y187841D01*
X837662Y186431D01*
X837678Y186420D01*
X837690Y186404D01*
X837778Y186348D01*
X837861Y186288D01*
X837880Y186282D01*
X837897Y186271D01*
X837998Y186246D01*
X838097Y186216D01*
X838116Y186216D01*
X838136Y186211D01*
X838239Y186219D01*
X838342Y186222D01*
X838361Y186229D01*
X838381Y186230D01*
X838476Y186271D01*
X838573Y186306D01*
X838589Y186319D01*
X838607Y186327D01*
X838738Y186431D01*
X840148Y187841D01*
X855252Y187841D01*
X856741Y186352D01*
X856741Y182837D01*
X856752Y182767D01*
X856754Y182695D01*
X856772Y182646D01*
X856780Y182595D01*
X856814Y182531D01*
X856839Y182464D01*
X856871Y182423D01*
X856896Y182377D01*
X856948Y182328D01*
X856992Y182272D01*
X857036Y182244D01*
X857074Y182208D01*
X857139Y182178D01*
X857199Y182139D01*
X857250Y182126D01*
X857297Y182104D01*
X857368Y182096D01*
X857438Y182079D01*
X857490Y182083D01*
X857541Y182077D01*
X857612Y182092D01*
X857683Y182098D01*
X857731Y182118D01*
X857782Y182129D01*
X857843Y182166D01*
X857909Y182194D01*
X857965Y182239D01*
X857993Y182256D01*
X858008Y182273D01*
X858040Y182299D01*
X859571Y183830D01*
X862019Y184844D01*
X862058Y184868D01*
X862101Y184884D01*
X862162Y184933D01*
X862228Y184974D01*
X862257Y185009D01*
X862293Y185038D01*
X862335Y185103D01*
X862385Y185163D01*
X862401Y185206D01*
X862426Y185244D01*
X862445Y185320D01*
X862473Y185393D01*
X862475Y185438D01*
X862486Y185483D01*
X862480Y185561D01*
X862484Y185638D01*
X862471Y185683D01*
X862467Y185728D01*
X862437Y185800D01*
X862415Y185875D01*
X862389Y185912D01*
X862371Y185955D01*
X862286Y186061D01*
X862275Y186077D01*
X862271Y186080D01*
X862266Y186086D01*
X779589Y268762D01*
X779515Y268815D01*
X779446Y268875D01*
X779416Y268887D01*
X779390Y268906D01*
X779303Y268933D01*
X779218Y268967D01*
X779177Y268971D01*
X779154Y268978D01*
X779122Y268977D01*
X779051Y268985D01*
X700244Y268985D01*
X700154Y268971D01*
X700063Y268963D01*
X700033Y268951D01*
X700001Y268946D01*
X699920Y268903D01*
X699836Y268867D01*
X699804Y268841D01*
X699784Y268830D01*
X699761Y268807D01*
X699705Y268762D01*
X698452Y267509D01*
X674348Y267509D01*
X672859Y268998D01*
X672859Y277102D01*
X674348Y278591D01*
X698452Y278591D01*
X699705Y277338D01*
X699779Y277285D01*
X699849Y277225D01*
X699879Y277213D01*
X699905Y277194D01*
X699992Y277167D01*
X700077Y277133D01*
X700118Y277129D01*
X700140Y277122D01*
X700172Y277123D01*
X700244Y277115D01*
X782734Y277115D01*
X912115Y147734D01*
X912115Y59149D01*
X912129Y59059D01*
X912137Y58968D01*
X912149Y58938D01*
X912154Y58906D01*
X912197Y58826D01*
X912233Y58742D01*
X912259Y58710D01*
X912270Y58689D01*
X912293Y58667D01*
X912338Y58611D01*
X928460Y42489D01*
X928518Y42447D01*
X928570Y42397D01*
X928617Y42375D01*
X928659Y42345D01*
X928728Y42324D01*
X928793Y42294D01*
X928845Y42288D01*
X928895Y42273D01*
X928966Y42275D01*
X929037Y42267D01*
X929088Y42278D01*
X929140Y42279D01*
X929208Y42304D01*
X929278Y42319D01*
X929323Y42346D01*
X929371Y42364D01*
X929427Y42408D01*
X929489Y42445D01*
X929523Y42485D01*
X929563Y42517D01*
X929602Y42578D01*
X929649Y42632D01*
X929668Y42680D01*
X929696Y42724D01*
X929714Y42794D01*
X929741Y42860D01*
X929749Y42932D01*
X929757Y42963D01*
X929755Y42986D01*
X929759Y43027D01*
X929759Y48852D01*
X931264Y50358D01*
X931333Y50453D01*
X931404Y50550D01*
X931406Y50554D01*
X931408Y50557D01*
X931443Y50670D01*
X931479Y50784D01*
X931479Y50788D01*
X931480Y50792D01*
X931477Y50911D01*
X931475Y51030D01*
X931474Y51034D01*
X931474Y51038D01*
X931433Y51150D01*
X931394Y51262D01*
X931391Y51265D01*
X931390Y51269D01*
X931315Y51363D01*
X931242Y51456D01*
X931238Y51459D01*
X931236Y51461D01*
X931224Y51469D01*
X931107Y51555D01*
X930740Y51767D01*
X930267Y52240D01*
X929932Y52819D01*
X929759Y53466D01*
X929759Y58777D01*
X939038Y58777D01*
X939058Y58780D01*
X939077Y58778D01*
X939179Y58800D01*
X939281Y58817D01*
X939298Y58826D01*
X939318Y58830D01*
X939407Y58883D01*
X939498Y58932D01*
X939512Y58946D01*
X939529Y58956D01*
X939596Y59035D01*
X939667Y59110D01*
X939676Y59128D01*
X939689Y59143D01*
X939728Y59239D01*
X939771Y59333D01*
X939773Y59353D01*
X939781Y59371D01*
X939799Y59538D01*
X939799Y60301D01*
X939801Y60301D01*
X939801Y59538D01*
X939804Y59518D01*
X939802Y59499D01*
X939824Y59397D01*
X939841Y59295D01*
X939850Y59278D01*
X939854Y59258D01*
X939907Y59169D01*
X939956Y59078D01*
X939970Y59064D01*
X939980Y59047D01*
X940059Y58980D01*
X940134Y58909D01*
X940152Y58900D01*
X940167Y58887D01*
X940263Y58848D01*
X940357Y58805D01*
X940377Y58803D01*
X940395Y58795D01*
X940562Y58777D01*
X949841Y58777D01*
X949841Y53466D01*
X949668Y52819D01*
X949333Y52240D01*
X948860Y51767D01*
X948493Y51555D01*
X948400Y51479D01*
X948308Y51406D01*
X948306Y51402D01*
X948303Y51399D01*
X948239Y51298D01*
X948175Y51199D01*
X948174Y51195D01*
X948172Y51191D01*
X948144Y51075D01*
X948115Y50960D01*
X948116Y50956D01*
X948115Y50952D01*
X948125Y50833D01*
X948134Y50715D01*
X948136Y50711D01*
X948136Y50707D01*
X948184Y50597D01*
X948231Y50489D01*
X948234Y50485D01*
X948235Y50482D01*
X948245Y50471D01*
X948336Y50358D01*
X949841Y48852D01*
X949841Y33748D01*
X948352Y32259D01*
X931248Y32259D01*
X929695Y33812D01*
X929621Y33865D01*
X929551Y33925D01*
X929521Y33937D01*
X929495Y33956D01*
X929408Y33983D01*
X929323Y34017D01*
X929282Y34021D01*
X929260Y34028D01*
X929228Y34027D01*
X929156Y34035D01*
X929099Y34035D01*
X929018Y34022D01*
X929014Y34022D01*
X929011Y34021D01*
X929009Y34021D01*
X928918Y34013D01*
X928888Y34001D01*
X928856Y33996D01*
X928776Y33953D01*
X928692Y33917D01*
X928660Y33891D01*
X928639Y33880D01*
X928617Y33857D01*
X928561Y33812D01*
X909734Y14985D01*
X880966Y14985D01*
G37*
%LPD*%
%LPC*%
G36*
X554448Y218559D02*
X554448Y218559D01*
X552959Y220048D01*
X552959Y223774D01*
X552956Y223794D01*
X552958Y223813D01*
X552936Y223915D01*
X552920Y224017D01*
X552910Y224034D01*
X552906Y224054D01*
X552853Y224143D01*
X552804Y224234D01*
X552790Y224248D01*
X552780Y224265D01*
X552701Y224332D01*
X552626Y224404D01*
X552608Y224412D01*
X552593Y224425D01*
X552497Y224464D01*
X552403Y224507D01*
X552383Y224509D01*
X552365Y224517D01*
X552198Y224535D01*
X527644Y224535D01*
X527554Y224521D01*
X527463Y224513D01*
X527433Y224501D01*
X527401Y224496D01*
X527320Y224453D01*
X527236Y224417D01*
X527204Y224391D01*
X527184Y224380D01*
X527161Y224357D01*
X527105Y224312D01*
X527052Y224259D01*
X521383Y224259D01*
X521283Y224243D01*
X521181Y224232D01*
X521156Y224222D01*
X521140Y224220D01*
X521134Y224216D01*
X521102Y224226D01*
X521073Y224230D01*
X521046Y224241D01*
X520879Y224259D01*
X510948Y224259D01*
X509459Y225748D01*
X509459Y237852D01*
X510948Y239341D01*
X527052Y239341D01*
X528541Y237852D01*
X528541Y233426D01*
X528544Y233406D01*
X528542Y233387D01*
X528564Y233285D01*
X528580Y233183D01*
X528590Y233166D01*
X528594Y233146D01*
X528647Y233057D01*
X528696Y232966D01*
X528710Y232952D01*
X528720Y232935D01*
X528799Y232868D01*
X528874Y232796D01*
X528892Y232788D01*
X528907Y232775D01*
X529003Y232736D01*
X529097Y232693D01*
X529117Y232691D01*
X529135Y232683D01*
X529302Y232665D01*
X552198Y232665D01*
X552218Y232668D01*
X552237Y232666D01*
X552339Y232688D01*
X552441Y232704D01*
X552458Y232714D01*
X552478Y232718D01*
X552567Y232771D01*
X552658Y232820D01*
X552672Y232834D01*
X552689Y232844D01*
X552756Y232923D01*
X552828Y232998D01*
X552836Y233016D01*
X552849Y233031D01*
X552888Y233127D01*
X552931Y233221D01*
X552933Y233241D01*
X552941Y233259D01*
X552959Y233426D01*
X552959Y237152D01*
X554448Y238641D01*
X569552Y238641D01*
X570962Y237231D01*
X570978Y237220D01*
X570990Y237204D01*
X571054Y237163D01*
X571100Y237124D01*
X571126Y237113D01*
X571161Y237088D01*
X571180Y237082D01*
X571197Y237071D01*
X571286Y237049D01*
X571329Y237032D01*
X571353Y237029D01*
X571397Y237016D01*
X571416Y237016D01*
X571436Y237011D01*
X571482Y237015D01*
X571495Y237013D01*
X571505Y237013D01*
X571542Y237019D01*
X571642Y237022D01*
X571661Y237029D01*
X571681Y237030D01*
X571726Y237049D01*
X571748Y237053D01*
X571792Y237077D01*
X571873Y237106D01*
X571889Y237119D01*
X571907Y237127D01*
X571948Y237159D01*
X571965Y237168D01*
X571983Y237187D01*
X572038Y237231D01*
X573448Y238641D01*
X588177Y238641D01*
X588267Y238655D01*
X588358Y238663D01*
X588388Y238675D01*
X588420Y238680D01*
X588500Y238723D01*
X588584Y238759D01*
X588616Y238785D01*
X588637Y238796D01*
X588659Y238819D01*
X588715Y238864D01*
X611662Y261811D01*
X614266Y264415D01*
X620556Y264415D01*
X620646Y264429D01*
X620737Y264437D01*
X620767Y264449D01*
X620799Y264454D01*
X620880Y264497D01*
X620964Y264533D01*
X620996Y264559D01*
X621016Y264570D01*
X621020Y264573D01*
X621039Y264593D01*
X621095Y264638D01*
X622348Y265891D01*
X646452Y265891D01*
X647941Y264402D01*
X647941Y256298D01*
X646452Y254809D01*
X622348Y254809D01*
X621095Y256062D01*
X621021Y256115D01*
X620951Y256175D01*
X620921Y256187D01*
X620895Y256206D01*
X620808Y256233D01*
X620723Y256267D01*
X620682Y256271D01*
X620660Y256278D01*
X620628Y256277D01*
X620556Y256285D01*
X617949Y256285D01*
X617859Y256271D01*
X617768Y256263D01*
X617738Y256251D01*
X617706Y256246D01*
X617626Y256203D01*
X617542Y256167D01*
X617510Y256141D01*
X617489Y256130D01*
X617467Y256107D01*
X617411Y256062D01*
X590264Y228915D01*
X590211Y228841D01*
X590151Y228772D01*
X590139Y228742D01*
X590120Y228716D01*
X590093Y228629D01*
X590059Y228544D01*
X590055Y228503D01*
X590048Y228481D01*
X590049Y228448D01*
X590041Y228377D01*
X590041Y220048D01*
X588552Y218559D01*
X573448Y218559D01*
X572038Y219969D01*
X572022Y219980D01*
X572010Y219996D01*
X571922Y220052D01*
X571839Y220112D01*
X571820Y220118D01*
X571803Y220129D01*
X571702Y220154D01*
X571603Y220184D01*
X571584Y220184D01*
X571564Y220189D01*
X571461Y220181D01*
X571358Y220178D01*
X571339Y220171D01*
X571319Y220170D01*
X571224Y220129D01*
X571127Y220094D01*
X571111Y220081D01*
X571093Y220073D01*
X570962Y219969D01*
X569552Y218559D01*
X554448Y218559D01*
G37*
%LPD*%
%LPC*%
G36*
X510948Y243259D02*
X510948Y243259D01*
X509459Y244748D01*
X509459Y256852D01*
X510948Y258341D01*
X515874Y258341D01*
X515894Y258344D01*
X515913Y258342D01*
X516015Y258364D01*
X516117Y258380D01*
X516134Y258390D01*
X516154Y258394D01*
X516243Y258447D01*
X516334Y258496D01*
X516348Y258510D01*
X516365Y258520D01*
X516432Y258599D01*
X516504Y258674D01*
X516512Y258692D01*
X516525Y258707D01*
X516564Y258803D01*
X516607Y258897D01*
X516609Y258917D01*
X516617Y258935D01*
X516635Y259102D01*
X516635Y273090D01*
X516621Y273181D01*
X516613Y273271D01*
X516601Y273301D01*
X516596Y273333D01*
X516553Y273414D01*
X516517Y273498D01*
X516491Y273530D01*
X516480Y273551D01*
X516457Y273573D01*
X516412Y273629D01*
X514670Y275371D01*
X513587Y277985D01*
X513587Y280815D01*
X514670Y283429D01*
X516412Y285171D01*
X516465Y285245D01*
X516525Y285315D01*
X516537Y285345D01*
X516556Y285371D01*
X516583Y285458D01*
X516617Y285543D01*
X516621Y285584D01*
X516628Y285606D01*
X516627Y285638D01*
X516635Y285710D01*
X516635Y287434D01*
X519016Y289815D01*
X620556Y289815D01*
X620646Y289829D01*
X620737Y289837D01*
X620767Y289849D01*
X620799Y289854D01*
X620880Y289897D01*
X620964Y289933D01*
X620996Y289959D01*
X621016Y289970D01*
X621039Y289993D01*
X621095Y290038D01*
X622348Y291291D01*
X646452Y291291D01*
X647941Y289802D01*
X647941Y281698D01*
X646452Y280209D01*
X622348Y280209D01*
X621095Y281462D01*
X621021Y281515D01*
X620951Y281575D01*
X620921Y281587D01*
X620895Y281606D01*
X620808Y281633D01*
X620723Y281667D01*
X620682Y281671D01*
X620660Y281678D01*
X620628Y281677D01*
X620556Y281685D01*
X528574Y281685D01*
X528554Y281682D01*
X528535Y281684D01*
X528433Y281662D01*
X528331Y281646D01*
X528314Y281636D01*
X528294Y281632D01*
X528205Y281579D01*
X528114Y281530D01*
X528100Y281516D01*
X528083Y281506D01*
X528016Y281427D01*
X527944Y281352D01*
X527936Y281334D01*
X527923Y281319D01*
X527884Y281223D01*
X527841Y281129D01*
X527839Y281109D01*
X527831Y281091D01*
X527813Y280924D01*
X527813Y277985D01*
X526730Y275371D01*
X524988Y273629D01*
X524935Y273555D01*
X524875Y273485D01*
X524863Y273455D01*
X524844Y273429D01*
X524817Y273342D01*
X524783Y273257D01*
X524779Y273216D01*
X524772Y273194D01*
X524773Y273162D01*
X524765Y273090D01*
X524765Y259102D01*
X524768Y259082D01*
X524766Y259063D01*
X524788Y258961D01*
X524804Y258859D01*
X524814Y258842D01*
X524818Y258822D01*
X524871Y258733D01*
X524920Y258642D01*
X524934Y258628D01*
X524944Y258611D01*
X525023Y258544D01*
X525098Y258472D01*
X525116Y258464D01*
X525131Y258451D01*
X525227Y258412D01*
X525321Y258369D01*
X525341Y258367D01*
X525359Y258359D01*
X525526Y258341D01*
X527052Y258341D01*
X528541Y256852D01*
X528541Y244748D01*
X527052Y243259D01*
X510948Y243259D01*
G37*
%LPD*%
%LPC*%
G36*
X488948Y233759D02*
X488948Y233759D01*
X487459Y235248D01*
X487459Y243077D01*
X487445Y243167D01*
X487437Y243258D01*
X487425Y243288D01*
X487420Y243320D01*
X487377Y243400D01*
X487341Y243484D01*
X487315Y243516D01*
X487304Y243537D01*
X487281Y243559D01*
X487255Y243592D01*
X487254Y243594D01*
X487252Y243595D01*
X487236Y243615D01*
X455739Y275112D01*
X455665Y275165D01*
X455596Y275225D01*
X455566Y275237D01*
X455540Y275256D01*
X455453Y275283D01*
X455368Y275317D01*
X455327Y275321D01*
X455304Y275328D01*
X455272Y275327D01*
X455201Y275335D01*
X435102Y275335D01*
X435082Y275332D01*
X435063Y275334D01*
X434961Y275312D01*
X434859Y275296D01*
X434842Y275286D01*
X434822Y275282D01*
X434733Y275229D01*
X434642Y275180D01*
X434628Y275166D01*
X434611Y275156D01*
X434544Y275077D01*
X434472Y275002D01*
X434464Y274984D01*
X434451Y274969D01*
X434412Y274873D01*
X434369Y274779D01*
X434367Y274759D01*
X434359Y274741D01*
X434341Y274574D01*
X434341Y273087D01*
X425413Y264159D01*
X412787Y264159D01*
X403859Y273087D01*
X403859Y285713D01*
X412787Y294641D01*
X425413Y294641D01*
X434341Y285713D01*
X434341Y284226D01*
X434344Y284206D01*
X434342Y284187D01*
X434364Y284085D01*
X434380Y283983D01*
X434390Y283966D01*
X434394Y283946D01*
X434447Y283857D01*
X434496Y283766D01*
X434510Y283752D01*
X434520Y283735D01*
X434599Y283668D01*
X434674Y283596D01*
X434692Y283588D01*
X434707Y283575D01*
X434803Y283536D01*
X434897Y283493D01*
X434917Y283491D01*
X434935Y283483D01*
X435102Y283465D01*
X458884Y283465D01*
X461488Y280861D01*
X493285Y249064D01*
X493359Y249011D01*
X493428Y248951D01*
X493458Y248939D01*
X493484Y248920D01*
X493571Y248893D01*
X493656Y248859D01*
X493697Y248855D01*
X493719Y248848D01*
X493752Y248849D01*
X493823Y248841D01*
X505052Y248841D01*
X506541Y247352D01*
X506541Y235248D01*
X505052Y233759D01*
X488948Y233759D01*
G37*
%LPD*%
%LPC*%
G36*
X684385Y157987D02*
X684385Y157987D01*
X681771Y159070D01*
X679770Y161071D01*
X678687Y163685D01*
X678687Y166515D01*
X679770Y169129D01*
X681301Y170660D01*
X681343Y170718D01*
X681392Y170770D01*
X681414Y170817D01*
X681444Y170859D01*
X681465Y170928D01*
X681496Y170993D01*
X681501Y171045D01*
X681517Y171095D01*
X681515Y171166D01*
X681523Y171237D01*
X681512Y171288D01*
X681510Y171340D01*
X681486Y171408D01*
X681471Y171478D01*
X681444Y171523D01*
X681426Y171571D01*
X681381Y171627D01*
X681344Y171689D01*
X681305Y171723D01*
X681272Y171763D01*
X681212Y171802D01*
X681157Y171849D01*
X681109Y171868D01*
X681065Y171896D01*
X680996Y171914D01*
X680929Y171941D01*
X680858Y171949D01*
X680827Y171957D01*
X680803Y171955D01*
X680763Y171959D01*
X677248Y171959D01*
X675759Y173448D01*
X675759Y188552D01*
X677169Y189962D01*
X677180Y189978D01*
X677196Y189990D01*
X677252Y190078D01*
X677312Y190161D01*
X677318Y190180D01*
X677329Y190197D01*
X677354Y190298D01*
X677384Y190397D01*
X677384Y190416D01*
X677389Y190436D01*
X677381Y190539D01*
X677378Y190642D01*
X677371Y190661D01*
X677370Y190681D01*
X677329Y190776D01*
X677294Y190873D01*
X677281Y190889D01*
X677273Y190907D01*
X677169Y191038D01*
X675759Y192448D01*
X675759Y207552D01*
X677248Y209041D01*
X680974Y209041D01*
X680994Y209044D01*
X681013Y209042D01*
X681115Y209064D01*
X681217Y209080D01*
X681234Y209090D01*
X681254Y209094D01*
X681343Y209147D01*
X681434Y209196D01*
X681448Y209210D01*
X681465Y209220D01*
X681532Y209299D01*
X681604Y209374D01*
X681612Y209392D01*
X681625Y209407D01*
X681664Y209503D01*
X681707Y209597D01*
X681709Y209617D01*
X681717Y209635D01*
X681735Y209802D01*
X681735Y241348D01*
X681732Y241368D01*
X681734Y241387D01*
X681712Y241489D01*
X681696Y241591D01*
X681686Y241608D01*
X681682Y241628D01*
X681629Y241717D01*
X681580Y241808D01*
X681566Y241822D01*
X681556Y241839D01*
X681477Y241906D01*
X681402Y241978D01*
X681384Y241986D01*
X681369Y241999D01*
X681273Y242038D01*
X681179Y242081D01*
X681159Y242083D01*
X681141Y242091D01*
X680974Y242109D01*
X674348Y242109D01*
X672859Y243598D01*
X672859Y251702D01*
X674348Y253191D01*
X698452Y253191D01*
X699941Y251702D01*
X699941Y243598D01*
X698452Y242109D01*
X690626Y242109D01*
X690606Y242106D01*
X690587Y242108D01*
X690485Y242086D01*
X690383Y242070D01*
X690366Y242060D01*
X690346Y242056D01*
X690257Y242003D01*
X690166Y241954D01*
X690152Y241940D01*
X690135Y241930D01*
X690068Y241851D01*
X689996Y241776D01*
X689988Y241758D01*
X689975Y241743D01*
X689936Y241647D01*
X689893Y241553D01*
X689891Y241533D01*
X689883Y241515D01*
X689865Y241348D01*
X689865Y209802D01*
X689868Y209782D01*
X689866Y209763D01*
X689888Y209661D01*
X689904Y209559D01*
X689914Y209542D01*
X689918Y209522D01*
X689971Y209433D01*
X690020Y209342D01*
X690034Y209328D01*
X690044Y209311D01*
X690123Y209244D01*
X690198Y209172D01*
X690216Y209164D01*
X690231Y209151D01*
X690327Y209112D01*
X690421Y209069D01*
X690441Y209067D01*
X690459Y209059D01*
X690626Y209041D01*
X694352Y209041D01*
X695841Y207552D01*
X695841Y192448D01*
X694431Y191038D01*
X694420Y191022D01*
X694404Y191010D01*
X694348Y190922D01*
X694288Y190839D01*
X694282Y190820D01*
X694271Y190803D01*
X694246Y190702D01*
X694216Y190603D01*
X694216Y190584D01*
X694211Y190564D01*
X694219Y190461D01*
X694222Y190358D01*
X694229Y190339D01*
X694230Y190319D01*
X694271Y190224D01*
X694306Y190127D01*
X694319Y190111D01*
X694327Y190093D01*
X694431Y189962D01*
X695841Y188552D01*
X695841Y173448D01*
X694352Y171959D01*
X690837Y171959D01*
X690767Y171948D01*
X690695Y171946D01*
X690646Y171928D01*
X690595Y171920D01*
X690531Y171886D01*
X690464Y171861D01*
X690423Y171829D01*
X690377Y171804D01*
X690328Y171752D01*
X690272Y171708D01*
X690244Y171664D01*
X690208Y171626D01*
X690178Y171561D01*
X690139Y171501D01*
X690126Y171450D01*
X690104Y171403D01*
X690096Y171332D01*
X690079Y171262D01*
X690083Y171210D01*
X690077Y171159D01*
X690092Y171088D01*
X690098Y171017D01*
X690118Y170969D01*
X690129Y170918D01*
X690166Y170857D01*
X690194Y170791D01*
X690239Y170735D01*
X690256Y170707D01*
X690273Y170692D01*
X690299Y170660D01*
X691830Y169129D01*
X692913Y166515D01*
X692913Y163685D01*
X691830Y161071D01*
X689829Y159070D01*
X687215Y157987D01*
X684385Y157987D01*
G37*
%LPD*%
%LPC*%
G36*
X119425Y299211D02*
X119425Y299211D01*
X108711Y309925D01*
X108711Y325075D01*
X119425Y335789D01*
X134575Y335789D01*
X145289Y325075D01*
X145289Y309925D01*
X134575Y299211D01*
X119425Y299211D01*
G37*
%LPD*%
%LPC*%
G36*
X805648Y127759D02*
X805648Y127759D01*
X804159Y129248D01*
X804159Y144352D01*
X805648Y145841D01*
X823252Y145841D01*
X824741Y144352D01*
X824741Y129248D01*
X823252Y127759D01*
X805648Y127759D01*
G37*
%LPD*%
%LPC*%
G36*
X348448Y127759D02*
X348448Y127759D01*
X346959Y129248D01*
X346959Y144352D01*
X348448Y145841D01*
X366052Y145841D01*
X367541Y144352D01*
X367541Y129248D01*
X366052Y127759D01*
X348448Y127759D01*
G37*
%LPD*%
%LPC*%
G36*
X919948Y127759D02*
X919948Y127759D01*
X918459Y129248D01*
X918459Y144352D01*
X919948Y145841D01*
X937552Y145841D01*
X939041Y144352D01*
X939041Y129248D01*
X937552Y127759D01*
X919948Y127759D01*
G37*
%LPD*%
%LPC*%
G36*
X348448Y82759D02*
X348448Y82759D01*
X346959Y84248D01*
X346959Y99352D01*
X348448Y100841D01*
X366052Y100841D01*
X367541Y99352D01*
X367541Y84248D01*
X366052Y82759D01*
X348448Y82759D01*
G37*
%LPD*%
%LPC*%
G36*
X234148Y127759D02*
X234148Y127759D01*
X232659Y129248D01*
X232659Y144352D01*
X234148Y145841D01*
X251752Y145841D01*
X253241Y144352D01*
X253241Y129248D01*
X251752Y127759D01*
X234148Y127759D01*
G37*
%LPD*%
%LPC*%
G36*
X462748Y82759D02*
X462748Y82759D01*
X461259Y84248D01*
X461259Y99352D01*
X462748Y100841D01*
X480352Y100841D01*
X481841Y99352D01*
X481841Y84248D01*
X480352Y82759D01*
X462748Y82759D01*
G37*
%LPD*%
%LPC*%
G36*
X234148Y82759D02*
X234148Y82759D01*
X232659Y84248D01*
X232659Y99352D01*
X234148Y100841D01*
X251752Y100841D01*
X253241Y99352D01*
X253241Y84248D01*
X251752Y82759D01*
X234148Y82759D01*
G37*
%LPD*%
%LPC*%
G36*
X119848Y82759D02*
X119848Y82759D01*
X118359Y84248D01*
X118359Y99352D01*
X119848Y100841D01*
X137452Y100841D01*
X138941Y99352D01*
X138941Y84248D01*
X137452Y82759D01*
X119848Y82759D01*
G37*
%LPD*%
%LPC*%
G36*
X577048Y82759D02*
X577048Y82759D01*
X575559Y84248D01*
X575559Y99352D01*
X577048Y100841D01*
X594652Y100841D01*
X596141Y99352D01*
X596141Y84248D01*
X594652Y82759D01*
X577048Y82759D01*
G37*
%LPD*%
%LPC*%
G36*
X919948Y82759D02*
X919948Y82759D01*
X918459Y84248D01*
X918459Y99352D01*
X919948Y100841D01*
X937552Y100841D01*
X939041Y99352D01*
X939041Y84248D01*
X937552Y82759D01*
X919948Y82759D01*
G37*
%LPD*%
%LPC*%
G36*
X462748Y127759D02*
X462748Y127759D01*
X461259Y129248D01*
X461259Y144352D01*
X462748Y145841D01*
X480352Y145841D01*
X481841Y144352D01*
X481841Y129248D01*
X480352Y127759D01*
X462748Y127759D01*
G37*
%LPD*%
%LPC*%
G36*
X691348Y127759D02*
X691348Y127759D01*
X689859Y129248D01*
X689859Y144352D01*
X691348Y145841D01*
X708952Y145841D01*
X710441Y144352D01*
X710441Y129248D01*
X708952Y127759D01*
X691348Y127759D01*
G37*
%LPD*%
%LPC*%
G36*
X119848Y127759D02*
X119848Y127759D01*
X118359Y129248D01*
X118359Y144352D01*
X119848Y145841D01*
X137452Y145841D01*
X138941Y144352D01*
X138941Y129248D01*
X137452Y127759D01*
X119848Y127759D01*
G37*
%LPD*%
%LPC*%
G36*
X577048Y127759D02*
X577048Y127759D01*
X575559Y129248D01*
X575559Y144352D01*
X577048Y145841D01*
X594652Y145841D01*
X596141Y144352D01*
X596141Y129248D01*
X594652Y127759D01*
X577048Y127759D01*
G37*
%LPD*%
%LPC*%
G36*
X691348Y82759D02*
X691348Y82759D01*
X689859Y84248D01*
X689859Y99352D01*
X691348Y100841D01*
X708952Y100841D01*
X710441Y99352D01*
X710441Y84248D01*
X708952Y82759D01*
X691348Y82759D01*
G37*
%LPD*%
%LPC*%
G36*
X805648Y82759D02*
X805648Y82759D01*
X804159Y84248D01*
X804159Y99352D01*
X805648Y100841D01*
X823252Y100841D01*
X824741Y99352D01*
X824741Y84248D01*
X823252Y82759D01*
X805648Y82759D01*
G37*
%LPD*%
%LPC*%
G36*
X179323Y319023D02*
X179323Y319023D01*
X179323Y335789D01*
X185375Y335789D01*
X196089Y325075D01*
X196089Y319023D01*
X179323Y319023D01*
G37*
%LPD*%
%LPC*%
G36*
X159511Y319023D02*
X159511Y319023D01*
X159511Y325075D01*
X170225Y335789D01*
X176277Y335789D01*
X176277Y319023D01*
X159511Y319023D01*
G37*
%LPD*%
%LPC*%
G36*
X179323Y299211D02*
X179323Y299211D01*
X179323Y315977D01*
X196089Y315977D01*
X196089Y309925D01*
X185375Y299211D01*
X179323Y299211D01*
G37*
%LPD*%
%LPC*%
G36*
X170225Y299211D02*
X170225Y299211D01*
X159511Y309925D01*
X159511Y315977D01*
X176277Y315977D01*
X176277Y299211D01*
X170225Y299211D01*
G37*
%LPD*%
%LPC*%
G36*
X344423Y280923D02*
X344423Y280923D01*
X344423Y294641D01*
X349213Y294641D01*
X358141Y285713D01*
X358141Y280923D01*
X344423Y280923D01*
G37*
%LPD*%
%LPC*%
G36*
X344423Y264159D02*
X344423Y264159D01*
X344423Y277877D01*
X358141Y277877D01*
X358141Y273087D01*
X349213Y264159D01*
X344423Y264159D01*
G37*
%LPD*%
%LPC*%
G36*
X327659Y280923D02*
X327659Y280923D01*
X327659Y285713D01*
X336587Y294641D01*
X341377Y294641D01*
X341377Y280923D01*
X327659Y280923D01*
G37*
%LPD*%
%LPC*%
G36*
X336587Y264159D02*
X336587Y264159D01*
X327659Y273087D01*
X327659Y277877D01*
X341377Y277877D01*
X341377Y264159D01*
X336587Y264159D01*
G37*
%LPD*%
%LPC*%
G36*
X941323Y61823D02*
X941323Y61823D01*
X941323Y69341D01*
X947634Y69341D01*
X948281Y69168D01*
X948860Y68833D01*
X949333Y68360D01*
X949668Y67781D01*
X949841Y67134D01*
X949841Y61823D01*
X941323Y61823D01*
G37*
%LPD*%
%LPC*%
G36*
X929759Y61823D02*
X929759Y61823D01*
X929759Y67134D01*
X929932Y67781D01*
X930267Y68360D01*
X930740Y68833D01*
X931319Y69168D01*
X931966Y69341D01*
X938277Y69341D01*
X938277Y61823D01*
X929759Y61823D01*
G37*
%LPD*%
%LPC*%
G36*
X635899Y249149D02*
X635899Y249149D01*
X635899Y253191D01*
X645734Y253191D01*
X646381Y253018D01*
X646960Y252683D01*
X647433Y252210D01*
X647768Y251631D01*
X647941Y250984D01*
X647941Y249149D01*
X635899Y249149D01*
G37*
%LPD*%
%LPC*%
G36*
X687899Y287249D02*
X687899Y287249D01*
X687899Y291291D01*
X697734Y291291D01*
X698381Y291118D01*
X698960Y290783D01*
X699433Y290310D01*
X699768Y289731D01*
X699941Y289084D01*
X699941Y287249D01*
X687899Y287249D01*
G37*
%LPD*%
%LPC*%
G36*
X620859Y249149D02*
X620859Y249149D01*
X620859Y250984D01*
X621032Y251631D01*
X621367Y252210D01*
X621840Y252683D01*
X622419Y253018D01*
X623066Y253191D01*
X632901Y253191D01*
X632901Y249149D01*
X620859Y249149D01*
G37*
%LPD*%
%LPC*%
G36*
X672859Y287249D02*
X672859Y287249D01*
X672859Y289084D01*
X673032Y289731D01*
X673367Y290310D01*
X673840Y290783D01*
X674419Y291118D01*
X675066Y291291D01*
X684901Y291291D01*
X684901Y287249D01*
X672859Y287249D01*
G37*
%LPD*%
%LPC*%
G36*
X635899Y246151D02*
X635899Y246151D01*
X647941Y246151D01*
X647941Y244316D01*
X647768Y243669D01*
X647433Y243090D01*
X646960Y242617D01*
X646381Y242282D01*
X645734Y242109D01*
X635899Y242109D01*
X635899Y246151D01*
G37*
%LPD*%
%LPC*%
G36*
X687899Y284251D02*
X687899Y284251D01*
X699941Y284251D01*
X699941Y282416D01*
X699768Y281769D01*
X699433Y281190D01*
X698960Y280717D01*
X698381Y280382D01*
X697734Y280209D01*
X687899Y280209D01*
X687899Y284251D01*
G37*
%LPD*%
%LPC*%
G36*
X623066Y242109D02*
X623066Y242109D01*
X622419Y242282D01*
X621840Y242617D01*
X621367Y243090D01*
X621032Y243669D01*
X620859Y244316D01*
X620859Y246151D01*
X632901Y246151D01*
X632901Y242109D01*
X623066Y242109D01*
G37*
%LPD*%
%LPC*%
G36*
X675066Y280209D02*
X675066Y280209D01*
X674419Y280382D01*
X673840Y280717D01*
X673367Y281190D01*
X673032Y281769D01*
X672859Y282416D01*
X672859Y284251D01*
X684901Y284251D01*
X684901Y280209D01*
X675066Y280209D01*
G37*
%LPD*%
%LPC*%
G36*
X342899Y279399D02*
X342899Y279399D01*
X342899Y279401D01*
X342901Y279401D01*
X342901Y279399D01*
X342899Y279399D01*
G37*
%LPD*%
%LPC*%
G36*
X177799Y317499D02*
X177799Y317499D01*
X177799Y317501D01*
X177801Y317501D01*
X177801Y317499D01*
X177799Y317499D01*
G37*
%LPD*%
D10*
X127000Y317500D03*
X177800Y317500D03*
D11*
X685800Y200000D03*
X685800Y181000D03*
D12*
X828700Y177800D03*
X847700Y177800D03*
D13*
X419100Y279400D03*
X342900Y279400D03*
D14*
X497000Y241300D03*
X519000Y250800D03*
X519000Y231800D03*
D12*
X562000Y228600D03*
X581000Y228600D03*
D11*
X939800Y41300D03*
X939800Y60300D03*
D12*
X92100Y38100D03*
X111100Y38100D03*
X206400Y38100D03*
X225400Y38100D03*
X320700Y38100D03*
X339700Y38100D03*
X435000Y38100D03*
X454000Y38100D03*
X549300Y38100D03*
X568300Y38100D03*
X663600Y38100D03*
X682600Y38100D03*
X777900Y38100D03*
X796900Y38100D03*
X879500Y38100D03*
X898500Y38100D03*
D15*
X128650Y136800D03*
X49150Y136800D03*
X128650Y91800D03*
X49150Y91800D03*
X242950Y136800D03*
X163450Y136800D03*
X242950Y91800D03*
X163450Y91800D03*
X357250Y136800D03*
X277750Y136800D03*
X357250Y91800D03*
X277750Y91800D03*
X471550Y136800D03*
X392050Y136800D03*
X471550Y91800D03*
X392050Y91800D03*
X585850Y136800D03*
X506350Y136800D03*
X585850Y91800D03*
X506350Y91800D03*
X700150Y136800D03*
X620650Y136800D03*
X700150Y91800D03*
X620650Y91800D03*
X814450Y136800D03*
X734950Y136800D03*
X814450Y91800D03*
X734950Y91800D03*
X928750Y136800D03*
X849250Y136800D03*
X928750Y91800D03*
X849250Y91800D03*
D16*
X634400Y273050D03*
X686400Y273050D03*
X634400Y285750D03*
X634400Y260350D03*
X634400Y247650D03*
X686400Y285750D03*
X686400Y260350D03*
X686400Y247650D03*
D17*
X882650Y38100D02*
X882650Y19050D01*
X908050Y19050D01*
X927100Y38100D01*
X939800Y38100D01*
X882650Y38100D02*
X879500Y38100D01*
X939800Y38100D02*
X939800Y41300D01*
X781050Y273050D02*
X686400Y273050D01*
X781050Y273050D02*
X908050Y146050D01*
X908050Y57150D01*
X927100Y38100D01*
X685800Y200000D02*
X685800Y247650D01*
X686400Y247650D01*
X495300Y241300D02*
X457200Y279400D01*
X419100Y279400D01*
X495300Y241300D02*
X497000Y241300D01*
X584200Y228600D02*
X615950Y260350D01*
X634400Y260350D01*
X584200Y228600D02*
X581000Y228600D01*
X562000Y228600D02*
X520700Y228600D01*
X519000Y231800D01*
X520700Y279400D02*
X520700Y285750D01*
X520700Y279400D02*
X520700Y254000D01*
X520700Y285750D02*
X634400Y285750D01*
X520700Y254000D02*
X519000Y250800D01*
X685800Y181000D02*
X685800Y165100D01*
X847700Y177800D02*
X863600Y177800D01*
D18*
X685800Y165100D03*
X863600Y177800D03*
X520700Y279400D03*
D17*
X50800Y152400D02*
X50800Y139700D01*
X50800Y152400D02*
X139700Y152400D01*
X152400Y139700D01*
X158750Y139700D01*
X50800Y139700D02*
X49150Y136800D01*
X158750Y139700D02*
X163450Y136800D01*
X279400Y139700D02*
X279400Y152400D01*
X368300Y152400D01*
X381000Y139700D01*
X387350Y139700D01*
X279400Y139700D02*
X277750Y136800D01*
X387350Y139700D02*
X392050Y136800D01*
X165100Y139700D02*
X165100Y152400D01*
X279400Y152400D01*
X165100Y139700D02*
X163450Y136800D01*
X831850Y139700D02*
X831850Y152400D01*
X831850Y177800D01*
X831850Y139700D02*
X844550Y139700D01*
X831850Y177800D02*
X828700Y177800D01*
X844550Y139700D02*
X849250Y136800D01*
X736600Y139700D02*
X736600Y152400D01*
X831850Y152400D01*
X736600Y139700D02*
X734950Y136800D01*
X660400Y273050D02*
X634400Y273050D01*
X660400Y273050D02*
X673100Y260350D01*
X686400Y260350D01*
X508000Y152400D02*
X508000Y139700D01*
X565150Y152400D02*
X596900Y152400D01*
X565150Y152400D02*
X508000Y152400D01*
X596900Y152400D02*
X609600Y139700D01*
X615950Y139700D01*
X508000Y139700D02*
X506350Y136800D01*
X615950Y139700D02*
X620650Y136800D01*
X565150Y152400D02*
X673100Y260350D01*
X736600Y152400D02*
X596900Y152400D01*
X393700Y152400D02*
X393700Y139700D01*
X393700Y152400D02*
X508000Y152400D01*
X393700Y139700D02*
X392050Y136800D01*
X819150Y57150D02*
X850900Y88900D01*
X819150Y57150D02*
X800100Y38100D01*
X796900Y38100D01*
X850900Y88900D02*
X849250Y91800D01*
X901700Y57150D02*
X901700Y38100D01*
X901700Y57150D02*
X819150Y57150D01*
X898500Y38100D02*
X901700Y38100D01*
X736600Y88900D02*
X730250Y82550D01*
X685800Y38100D01*
X682600Y38100D01*
X736600Y88900D02*
X734950Y91800D01*
X730250Y82550D02*
X774700Y38100D01*
X777900Y38100D01*
X622300Y88900D02*
X615950Y82550D01*
X571500Y38100D01*
X568300Y38100D01*
X622300Y88900D02*
X620650Y91800D01*
X615950Y82550D02*
X660400Y38100D01*
X663600Y38100D01*
X508000Y88900D02*
X501650Y82550D01*
X457200Y38100D01*
X454000Y38100D01*
X508000Y88900D02*
X506350Y91800D01*
X501650Y82550D02*
X546100Y38100D01*
X549300Y38100D01*
X393700Y88900D02*
X387350Y82550D01*
X342900Y38100D01*
X339700Y38100D01*
X393700Y88900D02*
X392050Y91800D01*
X387350Y82550D02*
X431800Y38100D01*
X435000Y38100D01*
X279400Y88900D02*
X273050Y82550D01*
X228600Y38100D01*
X225400Y38100D01*
X279400Y88900D02*
X277750Y91800D01*
X273050Y82550D02*
X317500Y38100D01*
X320700Y38100D01*
X165100Y88900D02*
X158750Y82550D01*
X114300Y38100D01*
X111100Y38100D01*
X165100Y88900D02*
X163450Y91800D01*
X158750Y82550D02*
X203200Y38100D01*
X206400Y38100D01*
X88900Y38100D02*
X50800Y76200D01*
X50800Y88900D01*
X88900Y38100D02*
X92100Y38100D01*
X50800Y88900D02*
X49150Y91800D01*
M02*
