G04 EAGLE Gerber RS-274X export*
G75*
%MOMM*%
%FSLAX34Y34*%
%LPD*%
%INTop Solder Mask*%
%IPPOS*%
%AMOC8*
5,1,8,0,0,1.08239X$1,22.5*%
G01*
%ADD10C,1.203200*%
%ADD11P,3.629037X8X292.500000*%
%ADD12R,1.703200X1.503200*%
%ADD13R,1.503200X1.703200*%
%ADD14P,2.969212X8X202.500000*%
%ADD15R,1.603200X1.203200*%
%ADD16R,1.753200X1.503200*%
%ADD17R,2.403200X0.803200*%
%ADD18C,1.117600*%


D10*
X25400Y355600D03*
X25400Y25400D03*
X965200Y25400D03*
X965200Y355600D03*
D11*
X127000Y317500D03*
X177800Y317500D03*
D12*
X685800Y200000D03*
X685800Y181000D03*
D13*
X828700Y177800D03*
X847700Y177800D03*
D14*
X419100Y279400D03*
X342900Y279400D03*
D15*
X497000Y241300D03*
X519000Y250800D03*
X519000Y231800D03*
D13*
X562000Y228600D03*
X581000Y228600D03*
D12*
X939800Y41300D03*
X939800Y60300D03*
D13*
X92100Y38100D03*
X111100Y38100D03*
X206400Y38100D03*
X225400Y38100D03*
X320700Y38100D03*
X339700Y38100D03*
X435000Y38100D03*
X454000Y38100D03*
X549300Y38100D03*
X568300Y38100D03*
X663600Y38100D03*
X682600Y38100D03*
X777900Y38100D03*
X796900Y38100D03*
X879500Y38100D03*
X898500Y38100D03*
D16*
X128650Y136800D03*
X49150Y136800D03*
X128650Y91800D03*
X49150Y91800D03*
X242950Y136800D03*
X163450Y136800D03*
X242950Y91800D03*
X163450Y91800D03*
X357250Y136800D03*
X277750Y136800D03*
X357250Y91800D03*
X277750Y91800D03*
X471550Y136800D03*
X392050Y136800D03*
X471550Y91800D03*
X392050Y91800D03*
X585850Y136800D03*
X506350Y136800D03*
X585850Y91800D03*
X506350Y91800D03*
X700150Y136800D03*
X620650Y136800D03*
X700150Y91800D03*
X620650Y91800D03*
X814450Y136800D03*
X734950Y136800D03*
X814450Y91800D03*
X734950Y91800D03*
X928750Y136800D03*
X849250Y136800D03*
X928750Y91800D03*
X849250Y91800D03*
D17*
X634400Y273050D03*
X686400Y273050D03*
X634400Y285750D03*
X634400Y260350D03*
X634400Y247650D03*
X686400Y285750D03*
X686400Y260350D03*
X686400Y247650D03*
D18*
X685800Y165100D03*
X863600Y177800D03*
X520700Y279400D03*
M02*
