G04 EAGLE Gerber RS-274X export*
G75*
%MOMM*%
%FSLAX34Y34*%
%LPD*%
%INMechanical*%
%IPPOS*%
%AMOC8*
5,1,8,0,0,1.08239X$1,22.5*%
G01*
%ADD10C,0.000000*%
%ADD11C,0.254000*%


D10*
X0Y0D02*
X987300Y0D01*
X987300Y380900D01*
X0Y380900D01*
X0Y0D01*
X20400Y355600D02*
X20402Y355741D01*
X20408Y355882D01*
X20418Y356022D01*
X20432Y356162D01*
X20450Y356302D01*
X20471Y356441D01*
X20497Y356580D01*
X20526Y356718D01*
X20560Y356854D01*
X20597Y356990D01*
X20638Y357125D01*
X20683Y357259D01*
X20732Y357391D01*
X20784Y357522D01*
X20840Y357651D01*
X20900Y357778D01*
X20963Y357904D01*
X21029Y358028D01*
X21100Y358151D01*
X21173Y358271D01*
X21250Y358389D01*
X21330Y358505D01*
X21414Y358618D01*
X21500Y358729D01*
X21590Y358838D01*
X21683Y358944D01*
X21778Y359047D01*
X21877Y359148D01*
X21978Y359246D01*
X22082Y359341D01*
X22189Y359433D01*
X22298Y359522D01*
X22410Y359607D01*
X22524Y359690D01*
X22640Y359770D01*
X22759Y359846D01*
X22880Y359918D01*
X23002Y359988D01*
X23127Y360053D01*
X23253Y360116D01*
X23381Y360174D01*
X23511Y360229D01*
X23642Y360281D01*
X23775Y360328D01*
X23909Y360372D01*
X24044Y360413D01*
X24180Y360449D01*
X24317Y360481D01*
X24455Y360510D01*
X24593Y360535D01*
X24733Y360555D01*
X24873Y360572D01*
X25013Y360585D01*
X25154Y360594D01*
X25294Y360599D01*
X25435Y360600D01*
X25576Y360597D01*
X25717Y360590D01*
X25857Y360579D01*
X25997Y360564D01*
X26137Y360545D01*
X26276Y360523D01*
X26414Y360496D01*
X26552Y360466D01*
X26688Y360431D01*
X26824Y360393D01*
X26958Y360351D01*
X27092Y360305D01*
X27224Y360256D01*
X27354Y360202D01*
X27483Y360145D01*
X27610Y360085D01*
X27736Y360021D01*
X27859Y359953D01*
X27981Y359882D01*
X28101Y359808D01*
X28218Y359730D01*
X28333Y359649D01*
X28446Y359565D01*
X28557Y359478D01*
X28665Y359387D01*
X28770Y359294D01*
X28873Y359197D01*
X28973Y359098D01*
X29070Y358996D01*
X29164Y358891D01*
X29255Y358784D01*
X29343Y358674D01*
X29428Y358562D01*
X29510Y358447D01*
X29589Y358330D01*
X29664Y358211D01*
X29736Y358090D01*
X29804Y357967D01*
X29869Y357842D01*
X29931Y357715D01*
X29988Y357586D01*
X30043Y357456D01*
X30093Y357325D01*
X30140Y357192D01*
X30183Y357058D01*
X30222Y356922D01*
X30257Y356786D01*
X30289Y356649D01*
X30316Y356511D01*
X30340Y356372D01*
X30360Y356232D01*
X30376Y356092D01*
X30388Y355952D01*
X30396Y355811D01*
X30400Y355670D01*
X30400Y355530D01*
X30396Y355389D01*
X30388Y355248D01*
X30376Y355108D01*
X30360Y354968D01*
X30340Y354828D01*
X30316Y354689D01*
X30289Y354551D01*
X30257Y354414D01*
X30222Y354278D01*
X30183Y354142D01*
X30140Y354008D01*
X30093Y353875D01*
X30043Y353744D01*
X29988Y353614D01*
X29931Y353485D01*
X29869Y353358D01*
X29804Y353233D01*
X29736Y353110D01*
X29664Y352989D01*
X29589Y352870D01*
X29510Y352753D01*
X29428Y352638D01*
X29343Y352526D01*
X29255Y352416D01*
X29164Y352309D01*
X29070Y352204D01*
X28973Y352102D01*
X28873Y352003D01*
X28770Y351906D01*
X28665Y351813D01*
X28557Y351722D01*
X28446Y351635D01*
X28333Y351551D01*
X28218Y351470D01*
X28101Y351392D01*
X27981Y351318D01*
X27859Y351247D01*
X27736Y351179D01*
X27610Y351115D01*
X27483Y351055D01*
X27354Y350998D01*
X27224Y350944D01*
X27092Y350895D01*
X26958Y350849D01*
X26824Y350807D01*
X26688Y350769D01*
X26552Y350734D01*
X26414Y350704D01*
X26276Y350677D01*
X26137Y350655D01*
X25997Y350636D01*
X25857Y350621D01*
X25717Y350610D01*
X25576Y350603D01*
X25435Y350600D01*
X25294Y350601D01*
X25154Y350606D01*
X25013Y350615D01*
X24873Y350628D01*
X24733Y350645D01*
X24593Y350665D01*
X24455Y350690D01*
X24317Y350719D01*
X24180Y350751D01*
X24044Y350787D01*
X23909Y350828D01*
X23775Y350872D01*
X23642Y350919D01*
X23511Y350971D01*
X23381Y351026D01*
X23253Y351084D01*
X23127Y351147D01*
X23002Y351212D01*
X22880Y351282D01*
X22759Y351354D01*
X22640Y351430D01*
X22524Y351510D01*
X22410Y351593D01*
X22298Y351678D01*
X22189Y351767D01*
X22082Y351859D01*
X21978Y351954D01*
X21877Y352052D01*
X21778Y352153D01*
X21683Y352256D01*
X21590Y352362D01*
X21500Y352471D01*
X21414Y352582D01*
X21330Y352695D01*
X21250Y352811D01*
X21173Y352929D01*
X21100Y353049D01*
X21029Y353172D01*
X20963Y353296D01*
X20900Y353422D01*
X20840Y353549D01*
X20784Y353678D01*
X20732Y353809D01*
X20683Y353941D01*
X20638Y354075D01*
X20597Y354210D01*
X20560Y354346D01*
X20526Y354482D01*
X20497Y354620D01*
X20471Y354759D01*
X20450Y354898D01*
X20432Y355038D01*
X20418Y355178D01*
X20408Y355318D01*
X20402Y355459D01*
X20400Y355600D01*
X20400Y25400D02*
X20402Y25541D01*
X20408Y25682D01*
X20418Y25822D01*
X20432Y25962D01*
X20450Y26102D01*
X20471Y26241D01*
X20497Y26380D01*
X20526Y26518D01*
X20560Y26654D01*
X20597Y26790D01*
X20638Y26925D01*
X20683Y27059D01*
X20732Y27191D01*
X20784Y27322D01*
X20840Y27451D01*
X20900Y27578D01*
X20963Y27704D01*
X21029Y27828D01*
X21100Y27951D01*
X21173Y28071D01*
X21250Y28189D01*
X21330Y28305D01*
X21414Y28418D01*
X21500Y28529D01*
X21590Y28638D01*
X21683Y28744D01*
X21778Y28847D01*
X21877Y28948D01*
X21978Y29046D01*
X22082Y29141D01*
X22189Y29233D01*
X22298Y29322D01*
X22410Y29407D01*
X22524Y29490D01*
X22640Y29570D01*
X22759Y29646D01*
X22880Y29718D01*
X23002Y29788D01*
X23127Y29853D01*
X23253Y29916D01*
X23381Y29974D01*
X23511Y30029D01*
X23642Y30081D01*
X23775Y30128D01*
X23909Y30172D01*
X24044Y30213D01*
X24180Y30249D01*
X24317Y30281D01*
X24455Y30310D01*
X24593Y30335D01*
X24733Y30355D01*
X24873Y30372D01*
X25013Y30385D01*
X25154Y30394D01*
X25294Y30399D01*
X25435Y30400D01*
X25576Y30397D01*
X25717Y30390D01*
X25857Y30379D01*
X25997Y30364D01*
X26137Y30345D01*
X26276Y30323D01*
X26414Y30296D01*
X26552Y30266D01*
X26688Y30231D01*
X26824Y30193D01*
X26958Y30151D01*
X27092Y30105D01*
X27224Y30056D01*
X27354Y30002D01*
X27483Y29945D01*
X27610Y29885D01*
X27736Y29821D01*
X27859Y29753D01*
X27981Y29682D01*
X28101Y29608D01*
X28218Y29530D01*
X28333Y29449D01*
X28446Y29365D01*
X28557Y29278D01*
X28665Y29187D01*
X28770Y29094D01*
X28873Y28997D01*
X28973Y28898D01*
X29070Y28796D01*
X29164Y28691D01*
X29255Y28584D01*
X29343Y28474D01*
X29428Y28362D01*
X29510Y28247D01*
X29589Y28130D01*
X29664Y28011D01*
X29736Y27890D01*
X29804Y27767D01*
X29869Y27642D01*
X29931Y27515D01*
X29988Y27386D01*
X30043Y27256D01*
X30093Y27125D01*
X30140Y26992D01*
X30183Y26858D01*
X30222Y26722D01*
X30257Y26586D01*
X30289Y26449D01*
X30316Y26311D01*
X30340Y26172D01*
X30360Y26032D01*
X30376Y25892D01*
X30388Y25752D01*
X30396Y25611D01*
X30400Y25470D01*
X30400Y25330D01*
X30396Y25189D01*
X30388Y25048D01*
X30376Y24908D01*
X30360Y24768D01*
X30340Y24628D01*
X30316Y24489D01*
X30289Y24351D01*
X30257Y24214D01*
X30222Y24078D01*
X30183Y23942D01*
X30140Y23808D01*
X30093Y23675D01*
X30043Y23544D01*
X29988Y23414D01*
X29931Y23285D01*
X29869Y23158D01*
X29804Y23033D01*
X29736Y22910D01*
X29664Y22789D01*
X29589Y22670D01*
X29510Y22553D01*
X29428Y22438D01*
X29343Y22326D01*
X29255Y22216D01*
X29164Y22109D01*
X29070Y22004D01*
X28973Y21902D01*
X28873Y21803D01*
X28770Y21706D01*
X28665Y21613D01*
X28557Y21522D01*
X28446Y21435D01*
X28333Y21351D01*
X28218Y21270D01*
X28101Y21192D01*
X27981Y21118D01*
X27859Y21047D01*
X27736Y20979D01*
X27610Y20915D01*
X27483Y20855D01*
X27354Y20798D01*
X27224Y20744D01*
X27092Y20695D01*
X26958Y20649D01*
X26824Y20607D01*
X26688Y20569D01*
X26552Y20534D01*
X26414Y20504D01*
X26276Y20477D01*
X26137Y20455D01*
X25997Y20436D01*
X25857Y20421D01*
X25717Y20410D01*
X25576Y20403D01*
X25435Y20400D01*
X25294Y20401D01*
X25154Y20406D01*
X25013Y20415D01*
X24873Y20428D01*
X24733Y20445D01*
X24593Y20465D01*
X24455Y20490D01*
X24317Y20519D01*
X24180Y20551D01*
X24044Y20587D01*
X23909Y20628D01*
X23775Y20672D01*
X23642Y20719D01*
X23511Y20771D01*
X23381Y20826D01*
X23253Y20884D01*
X23127Y20947D01*
X23002Y21012D01*
X22880Y21082D01*
X22759Y21154D01*
X22640Y21230D01*
X22524Y21310D01*
X22410Y21393D01*
X22298Y21478D01*
X22189Y21567D01*
X22082Y21659D01*
X21978Y21754D01*
X21877Y21852D01*
X21778Y21953D01*
X21683Y22056D01*
X21590Y22162D01*
X21500Y22271D01*
X21414Y22382D01*
X21330Y22495D01*
X21250Y22611D01*
X21173Y22729D01*
X21100Y22849D01*
X21029Y22972D01*
X20963Y23096D01*
X20900Y23222D01*
X20840Y23349D01*
X20784Y23478D01*
X20732Y23609D01*
X20683Y23741D01*
X20638Y23875D01*
X20597Y24010D01*
X20560Y24146D01*
X20526Y24282D01*
X20497Y24420D01*
X20471Y24559D01*
X20450Y24698D01*
X20432Y24838D01*
X20418Y24978D01*
X20408Y25118D01*
X20402Y25259D01*
X20400Y25400D01*
X960200Y25400D02*
X960202Y25541D01*
X960208Y25682D01*
X960218Y25822D01*
X960232Y25962D01*
X960250Y26102D01*
X960271Y26241D01*
X960297Y26380D01*
X960326Y26518D01*
X960360Y26654D01*
X960397Y26790D01*
X960438Y26925D01*
X960483Y27059D01*
X960532Y27191D01*
X960584Y27322D01*
X960640Y27451D01*
X960700Y27578D01*
X960763Y27704D01*
X960829Y27828D01*
X960900Y27951D01*
X960973Y28071D01*
X961050Y28189D01*
X961130Y28305D01*
X961214Y28418D01*
X961300Y28529D01*
X961390Y28638D01*
X961483Y28744D01*
X961578Y28847D01*
X961677Y28948D01*
X961778Y29046D01*
X961882Y29141D01*
X961989Y29233D01*
X962098Y29322D01*
X962210Y29407D01*
X962324Y29490D01*
X962440Y29570D01*
X962559Y29646D01*
X962680Y29718D01*
X962802Y29788D01*
X962927Y29853D01*
X963053Y29916D01*
X963181Y29974D01*
X963311Y30029D01*
X963442Y30081D01*
X963575Y30128D01*
X963709Y30172D01*
X963844Y30213D01*
X963980Y30249D01*
X964117Y30281D01*
X964255Y30310D01*
X964393Y30335D01*
X964533Y30355D01*
X964673Y30372D01*
X964813Y30385D01*
X964954Y30394D01*
X965094Y30399D01*
X965235Y30400D01*
X965376Y30397D01*
X965517Y30390D01*
X965657Y30379D01*
X965797Y30364D01*
X965937Y30345D01*
X966076Y30323D01*
X966214Y30296D01*
X966352Y30266D01*
X966488Y30231D01*
X966624Y30193D01*
X966758Y30151D01*
X966892Y30105D01*
X967024Y30056D01*
X967154Y30002D01*
X967283Y29945D01*
X967410Y29885D01*
X967536Y29821D01*
X967659Y29753D01*
X967781Y29682D01*
X967901Y29608D01*
X968018Y29530D01*
X968133Y29449D01*
X968246Y29365D01*
X968357Y29278D01*
X968465Y29187D01*
X968570Y29094D01*
X968673Y28997D01*
X968773Y28898D01*
X968870Y28796D01*
X968964Y28691D01*
X969055Y28584D01*
X969143Y28474D01*
X969228Y28362D01*
X969310Y28247D01*
X969389Y28130D01*
X969464Y28011D01*
X969536Y27890D01*
X969604Y27767D01*
X969669Y27642D01*
X969731Y27515D01*
X969788Y27386D01*
X969843Y27256D01*
X969893Y27125D01*
X969940Y26992D01*
X969983Y26858D01*
X970022Y26722D01*
X970057Y26586D01*
X970089Y26449D01*
X970116Y26311D01*
X970140Y26172D01*
X970160Y26032D01*
X970176Y25892D01*
X970188Y25752D01*
X970196Y25611D01*
X970200Y25470D01*
X970200Y25330D01*
X970196Y25189D01*
X970188Y25048D01*
X970176Y24908D01*
X970160Y24768D01*
X970140Y24628D01*
X970116Y24489D01*
X970089Y24351D01*
X970057Y24214D01*
X970022Y24078D01*
X969983Y23942D01*
X969940Y23808D01*
X969893Y23675D01*
X969843Y23544D01*
X969788Y23414D01*
X969731Y23285D01*
X969669Y23158D01*
X969604Y23033D01*
X969536Y22910D01*
X969464Y22789D01*
X969389Y22670D01*
X969310Y22553D01*
X969228Y22438D01*
X969143Y22326D01*
X969055Y22216D01*
X968964Y22109D01*
X968870Y22004D01*
X968773Y21902D01*
X968673Y21803D01*
X968570Y21706D01*
X968465Y21613D01*
X968357Y21522D01*
X968246Y21435D01*
X968133Y21351D01*
X968018Y21270D01*
X967901Y21192D01*
X967781Y21118D01*
X967659Y21047D01*
X967536Y20979D01*
X967410Y20915D01*
X967283Y20855D01*
X967154Y20798D01*
X967024Y20744D01*
X966892Y20695D01*
X966758Y20649D01*
X966624Y20607D01*
X966488Y20569D01*
X966352Y20534D01*
X966214Y20504D01*
X966076Y20477D01*
X965937Y20455D01*
X965797Y20436D01*
X965657Y20421D01*
X965517Y20410D01*
X965376Y20403D01*
X965235Y20400D01*
X965094Y20401D01*
X964954Y20406D01*
X964813Y20415D01*
X964673Y20428D01*
X964533Y20445D01*
X964393Y20465D01*
X964255Y20490D01*
X964117Y20519D01*
X963980Y20551D01*
X963844Y20587D01*
X963709Y20628D01*
X963575Y20672D01*
X963442Y20719D01*
X963311Y20771D01*
X963181Y20826D01*
X963053Y20884D01*
X962927Y20947D01*
X962802Y21012D01*
X962680Y21082D01*
X962559Y21154D01*
X962440Y21230D01*
X962324Y21310D01*
X962210Y21393D01*
X962098Y21478D01*
X961989Y21567D01*
X961882Y21659D01*
X961778Y21754D01*
X961677Y21852D01*
X961578Y21953D01*
X961483Y22056D01*
X961390Y22162D01*
X961300Y22271D01*
X961214Y22382D01*
X961130Y22495D01*
X961050Y22611D01*
X960973Y22729D01*
X960900Y22849D01*
X960829Y22972D01*
X960763Y23096D01*
X960700Y23222D01*
X960640Y23349D01*
X960584Y23478D01*
X960532Y23609D01*
X960483Y23741D01*
X960438Y23875D01*
X960397Y24010D01*
X960360Y24146D01*
X960326Y24282D01*
X960297Y24420D01*
X960271Y24559D01*
X960250Y24698D01*
X960232Y24838D01*
X960218Y24978D01*
X960208Y25118D01*
X960202Y25259D01*
X960200Y25400D01*
X960200Y355600D02*
X960202Y355741D01*
X960208Y355882D01*
X960218Y356022D01*
X960232Y356162D01*
X960250Y356302D01*
X960271Y356441D01*
X960297Y356580D01*
X960326Y356718D01*
X960360Y356854D01*
X960397Y356990D01*
X960438Y357125D01*
X960483Y357259D01*
X960532Y357391D01*
X960584Y357522D01*
X960640Y357651D01*
X960700Y357778D01*
X960763Y357904D01*
X960829Y358028D01*
X960900Y358151D01*
X960973Y358271D01*
X961050Y358389D01*
X961130Y358505D01*
X961214Y358618D01*
X961300Y358729D01*
X961390Y358838D01*
X961483Y358944D01*
X961578Y359047D01*
X961677Y359148D01*
X961778Y359246D01*
X961882Y359341D01*
X961989Y359433D01*
X962098Y359522D01*
X962210Y359607D01*
X962324Y359690D01*
X962440Y359770D01*
X962559Y359846D01*
X962680Y359918D01*
X962802Y359988D01*
X962927Y360053D01*
X963053Y360116D01*
X963181Y360174D01*
X963311Y360229D01*
X963442Y360281D01*
X963575Y360328D01*
X963709Y360372D01*
X963844Y360413D01*
X963980Y360449D01*
X964117Y360481D01*
X964255Y360510D01*
X964393Y360535D01*
X964533Y360555D01*
X964673Y360572D01*
X964813Y360585D01*
X964954Y360594D01*
X965094Y360599D01*
X965235Y360600D01*
X965376Y360597D01*
X965517Y360590D01*
X965657Y360579D01*
X965797Y360564D01*
X965937Y360545D01*
X966076Y360523D01*
X966214Y360496D01*
X966352Y360466D01*
X966488Y360431D01*
X966624Y360393D01*
X966758Y360351D01*
X966892Y360305D01*
X967024Y360256D01*
X967154Y360202D01*
X967283Y360145D01*
X967410Y360085D01*
X967536Y360021D01*
X967659Y359953D01*
X967781Y359882D01*
X967901Y359808D01*
X968018Y359730D01*
X968133Y359649D01*
X968246Y359565D01*
X968357Y359478D01*
X968465Y359387D01*
X968570Y359294D01*
X968673Y359197D01*
X968773Y359098D01*
X968870Y358996D01*
X968964Y358891D01*
X969055Y358784D01*
X969143Y358674D01*
X969228Y358562D01*
X969310Y358447D01*
X969389Y358330D01*
X969464Y358211D01*
X969536Y358090D01*
X969604Y357967D01*
X969669Y357842D01*
X969731Y357715D01*
X969788Y357586D01*
X969843Y357456D01*
X969893Y357325D01*
X969940Y357192D01*
X969983Y357058D01*
X970022Y356922D01*
X970057Y356786D01*
X970089Y356649D01*
X970116Y356511D01*
X970140Y356372D01*
X970160Y356232D01*
X970176Y356092D01*
X970188Y355952D01*
X970196Y355811D01*
X970200Y355670D01*
X970200Y355530D01*
X970196Y355389D01*
X970188Y355248D01*
X970176Y355108D01*
X970160Y354968D01*
X970140Y354828D01*
X970116Y354689D01*
X970089Y354551D01*
X970057Y354414D01*
X970022Y354278D01*
X969983Y354142D01*
X969940Y354008D01*
X969893Y353875D01*
X969843Y353744D01*
X969788Y353614D01*
X969731Y353485D01*
X969669Y353358D01*
X969604Y353233D01*
X969536Y353110D01*
X969464Y352989D01*
X969389Y352870D01*
X969310Y352753D01*
X969228Y352638D01*
X969143Y352526D01*
X969055Y352416D01*
X968964Y352309D01*
X968870Y352204D01*
X968773Y352102D01*
X968673Y352003D01*
X968570Y351906D01*
X968465Y351813D01*
X968357Y351722D01*
X968246Y351635D01*
X968133Y351551D01*
X968018Y351470D01*
X967901Y351392D01*
X967781Y351318D01*
X967659Y351247D01*
X967536Y351179D01*
X967410Y351115D01*
X967283Y351055D01*
X967154Y350998D01*
X967024Y350944D01*
X966892Y350895D01*
X966758Y350849D01*
X966624Y350807D01*
X966488Y350769D01*
X966352Y350734D01*
X966214Y350704D01*
X966076Y350677D01*
X965937Y350655D01*
X965797Y350636D01*
X965657Y350621D01*
X965517Y350610D01*
X965376Y350603D01*
X965235Y350600D01*
X965094Y350601D01*
X964954Y350606D01*
X964813Y350615D01*
X964673Y350628D01*
X964533Y350645D01*
X964393Y350665D01*
X964255Y350690D01*
X964117Y350719D01*
X963980Y350751D01*
X963844Y350787D01*
X963709Y350828D01*
X963575Y350872D01*
X963442Y350919D01*
X963311Y350971D01*
X963181Y351026D01*
X963053Y351084D01*
X962927Y351147D01*
X962802Y351212D01*
X962680Y351282D01*
X962559Y351354D01*
X962440Y351430D01*
X962324Y351510D01*
X962210Y351593D01*
X962098Y351678D01*
X961989Y351767D01*
X961882Y351859D01*
X961778Y351954D01*
X961677Y352052D01*
X961578Y352153D01*
X961483Y352256D01*
X961390Y352362D01*
X961300Y352471D01*
X961214Y352582D01*
X961130Y352695D01*
X961050Y352811D01*
X960973Y352929D01*
X960900Y353049D01*
X960829Y353172D01*
X960763Y353296D01*
X960700Y353422D01*
X960640Y353549D01*
X960584Y353678D01*
X960532Y353809D01*
X960483Y353941D01*
X960438Y354075D01*
X960397Y354210D01*
X960360Y354346D01*
X960326Y354482D01*
X960297Y354620D01*
X960271Y354759D01*
X960250Y354898D01*
X960232Y355038D01*
X960218Y355178D01*
X960208Y355318D01*
X960202Y355459D01*
X960200Y355600D01*
D11*
X0Y0D02*
X987300Y0D01*
X987300Y380900D01*
X0Y380900D01*
X0Y0D01*
X30400Y355319D02*
X30337Y354761D01*
X30212Y354214D01*
X30027Y353684D01*
X29783Y353178D01*
X29484Y352702D01*
X29134Y352263D01*
X28737Y351866D01*
X28298Y351516D01*
X27822Y351217D01*
X27316Y350973D01*
X26786Y350788D01*
X26239Y350663D01*
X25681Y350600D01*
X25119Y350600D01*
X24561Y350663D01*
X24014Y350788D01*
X23484Y350973D01*
X22978Y351217D01*
X22502Y351516D01*
X22063Y351866D01*
X21666Y352263D01*
X21316Y352702D01*
X21017Y353178D01*
X20773Y353684D01*
X20588Y354214D01*
X20463Y354761D01*
X20400Y355319D01*
X20400Y355881D01*
X20463Y356439D01*
X20588Y356986D01*
X20773Y357516D01*
X21017Y358022D01*
X21316Y358498D01*
X21666Y358937D01*
X22063Y359334D01*
X22502Y359684D01*
X22978Y359983D01*
X23484Y360227D01*
X24014Y360412D01*
X24561Y360537D01*
X25119Y360600D01*
X25681Y360600D01*
X26239Y360537D01*
X26786Y360412D01*
X27316Y360227D01*
X27822Y359983D01*
X28298Y359684D01*
X28737Y359334D01*
X29134Y358937D01*
X29484Y358498D01*
X29783Y358022D01*
X30027Y357516D01*
X30212Y356986D01*
X30337Y356439D01*
X30400Y355881D01*
X30400Y355319D01*
X30400Y25119D02*
X30337Y24561D01*
X30212Y24014D01*
X30027Y23484D01*
X29783Y22978D01*
X29484Y22502D01*
X29134Y22063D01*
X28737Y21666D01*
X28298Y21316D01*
X27822Y21017D01*
X27316Y20773D01*
X26786Y20588D01*
X26239Y20463D01*
X25681Y20400D01*
X25119Y20400D01*
X24561Y20463D01*
X24014Y20588D01*
X23484Y20773D01*
X22978Y21017D01*
X22502Y21316D01*
X22063Y21666D01*
X21666Y22063D01*
X21316Y22502D01*
X21017Y22978D01*
X20773Y23484D01*
X20588Y24014D01*
X20463Y24561D01*
X20400Y25119D01*
X20400Y25681D01*
X20463Y26239D01*
X20588Y26786D01*
X20773Y27316D01*
X21017Y27822D01*
X21316Y28298D01*
X21666Y28737D01*
X22063Y29134D01*
X22502Y29484D01*
X22978Y29783D01*
X23484Y30027D01*
X24014Y30212D01*
X24561Y30337D01*
X25119Y30400D01*
X25681Y30400D01*
X26239Y30337D01*
X26786Y30212D01*
X27316Y30027D01*
X27822Y29783D01*
X28298Y29484D01*
X28737Y29134D01*
X29134Y28737D01*
X29484Y28298D01*
X29783Y27822D01*
X30027Y27316D01*
X30212Y26786D01*
X30337Y26239D01*
X30400Y25681D01*
X30400Y25119D01*
X970200Y25119D02*
X970137Y24561D01*
X970012Y24014D01*
X969827Y23484D01*
X969583Y22978D01*
X969284Y22502D01*
X968934Y22063D01*
X968537Y21666D01*
X968098Y21316D01*
X967622Y21017D01*
X967116Y20773D01*
X966586Y20588D01*
X966039Y20463D01*
X965481Y20400D01*
X964919Y20400D01*
X964361Y20463D01*
X963814Y20588D01*
X963284Y20773D01*
X962778Y21017D01*
X962302Y21316D01*
X961863Y21666D01*
X961466Y22063D01*
X961116Y22502D01*
X960817Y22978D01*
X960573Y23484D01*
X960388Y24014D01*
X960263Y24561D01*
X960200Y25119D01*
X960200Y25681D01*
X960263Y26239D01*
X960388Y26786D01*
X960573Y27316D01*
X960817Y27822D01*
X961116Y28298D01*
X961466Y28737D01*
X961863Y29134D01*
X962302Y29484D01*
X962778Y29783D01*
X963284Y30027D01*
X963814Y30212D01*
X964361Y30337D01*
X964919Y30400D01*
X965481Y30400D01*
X966039Y30337D01*
X966586Y30212D01*
X967116Y30027D01*
X967622Y29783D01*
X968098Y29484D01*
X968537Y29134D01*
X968934Y28737D01*
X969284Y28298D01*
X969583Y27822D01*
X969827Y27316D01*
X970012Y26786D01*
X970137Y26239D01*
X970200Y25681D01*
X970200Y25119D01*
X970200Y355319D02*
X970137Y354761D01*
X970012Y354214D01*
X969827Y353684D01*
X969583Y353178D01*
X969284Y352702D01*
X968934Y352263D01*
X968537Y351866D01*
X968098Y351516D01*
X967622Y351217D01*
X967116Y350973D01*
X966586Y350788D01*
X966039Y350663D01*
X965481Y350600D01*
X964919Y350600D01*
X964361Y350663D01*
X963814Y350788D01*
X963284Y350973D01*
X962778Y351217D01*
X962302Y351516D01*
X961863Y351866D01*
X961466Y352263D01*
X961116Y352702D01*
X960817Y353178D01*
X960573Y353684D01*
X960388Y354214D01*
X960263Y354761D01*
X960200Y355319D01*
X960200Y355881D01*
X960263Y356439D01*
X960388Y356986D01*
X960573Y357516D01*
X960817Y358022D01*
X961116Y358498D01*
X961466Y358937D01*
X961863Y359334D01*
X962302Y359684D01*
X962778Y359983D01*
X963284Y360227D01*
X963814Y360412D01*
X964361Y360537D01*
X964919Y360600D01*
X965481Y360600D01*
X966039Y360537D01*
X966586Y360412D01*
X967116Y360227D01*
X967622Y359983D01*
X968098Y359684D01*
X968537Y359334D01*
X968934Y358937D01*
X969284Y358498D01*
X969583Y358022D01*
X969827Y357516D01*
X970012Y356986D01*
X970137Y356439D01*
X970200Y355881D01*
X970200Y355319D01*
M02*
